<svg id="visual" viewBox="0 0 960 540" width="960" height="540" xmlns="http://www.w3.org/2000/svg" xmlns:xlink="http://www.w3.org/1999/xlink" version="1.1"><g stroke-width="1" stroke-linejoin="bevel"><path d="M478 261L499 260L488 219Z" fill="#eaeaea" stroke="#eaeaea"></path><path d="M499 260L528 236L488 219Z" fill="#f9f9f9" stroke="#f9f9f9"></path><path d="M506 177L461 191L488 219Z" fill="#ececec" stroke="#ececec"></path><path d="M488 219L427 200L478 261Z" fill="#f5f5f5" stroke="#f5f5f5"></path><path d="M541 294L549 266L499 260Z" fill="#e7e7e7" stroke="#e7e7e7"></path><path d="M499 260L549 266L528 236Z" fill="#ececec" stroke="#ececec"></path><path d="M566 239L506 177L528 236Z" fill="#f0f0f0" stroke="#f0f0f0"></path><path d="M528 236L506 177L488 219Z" fill="#eeeeee" stroke="#eeeeee"></path><path d="M410 283L458 301L478 261Z" fill="#e5e5e5" stroke="#e5e5e5"></path><path d="M478 261L503 307L499 260Z" fill="#eeeeee" stroke="#eeeeee"></path><path d="M458 301L503 307L478 261Z" fill="#f2f2f2" stroke="#f2f2f2"></path><path d="M388 137L427 200L461 191Z" fill="#eeeeee" stroke="#eeeeee"></path><path d="M461 191L427 200L488 219Z" fill="#f5f5f5" stroke="#f5f5f5"></path><path d="M503 307L541 294L499 260Z" fill="#e3e3e3" stroke="#e3e3e3"></path><path d="M579 248L566 239L549 266Z" fill="#f9f9f9" stroke="#f9f9f9"></path><path d="M549 266L566 239L528 236Z" fill="#eeeeee" stroke="#eeeeee"></path><path d="M427 200L410 283L478 261Z" fill="#e7e7e7" stroke="#e7e7e7"></path><path d="M541 294L579 248L549 266Z" fill="#ececec" stroke="#ececec"></path><path d="M601 192L508 143L506 177Z" fill="#eeeeee" stroke="#eeeeee"></path><path d="M410 283L412 306L458 301Z" fill="#e7e7e7" stroke="#e7e7e7"></path><path d="M536 361L540 332L503 307Z" fill="#ececec" stroke="#ececec"></path><path d="M601 192L506 177L566 239Z" fill="#e3e3e3" stroke="#e3e3e3"></path><path d="M506 177L508 143L461 191Z" fill="#f0f0f0" stroke="#f0f0f0"></path><path d="M427 200L383 240L410 283Z" fill="#eeeeee" stroke="#eeeeee"></path><path d="M410 283L387 270L412 306Z" fill="#f0f0f0" stroke="#f0f0f0"></path><path d="M383 240L387 270L410 283Z" fill="#eeeeee" stroke="#eeeeee"></path><path d="M453 344L503 307L458 301Z" fill="#f9f9f9" stroke="#f9f9f9"></path><path d="M503 307L540 332L541 294Z" fill="#eeeeee" stroke="#eeeeee"></path><path d="M637 315L642 279L579 248Z" fill="#e5e5e5" stroke="#e5e5e5"></path><path d="M412 306L453 344L458 301Z" fill="#e5e5e5" stroke="#e5e5e5"></path><path d="M642 279L598 233L579 248Z" fill="#e5e5e5" stroke="#e5e5e5"></path><path d="M579 248L598 233L566 239Z" fill="#f9f9f9" stroke="#f9f9f9"></path><path d="M427 200L375 232L383 240Z" fill="#f9f9f9" stroke="#f9f9f9"></path><path d="M383 240L375 232L387 270Z" fill="#ececec" stroke="#ececec"></path><path d="M383 139L375 232L427 200Z" fill="#f2f2f2" stroke="#f2f2f2"></path><path d="M546 97L495 124L508 143Z" fill="#e3e3e3" stroke="#e3e3e3"></path><path d="M508 143L495 124L461 191Z" fill="#eeeeee" stroke="#eeeeee"></path><path d="M432 377L464 357L453 344Z" fill="#f0f0f0" stroke="#f0f0f0"></path><path d="M453 344L464 357L503 307Z" fill="#f7f7f7" stroke="#f7f7f7"></path><path d="M598 233L601 192L566 239Z" fill="#eaeaea" stroke="#eaeaea"></path><path d="M464 357L536 361L503 307Z" fill="#e5e5e5" stroke="#e5e5e5"></path><path d="M637 315L579 248L541 294Z" fill="#f7f7f7" stroke="#f7f7f7"></path><path d="M495 124L388 137L461 191Z" fill="#e5e5e5" stroke="#e5e5e5"></path><path d="M388 137L383 139L427 200Z" fill="#e7e7e7" stroke="#e7e7e7"></path><path d="M412 306L432 377L453 344Z" fill="#e3e3e3" stroke="#e3e3e3"></path><path d="M464 357L451 391L536 361Z" fill="#eeeeee" stroke="#eeeeee"></path><path d="M386 367L432 377L412 306Z" fill="#f2f2f2" stroke="#f2f2f2"></path><path d="M432 377L451 391L464 357Z" fill="#f5f5f5" stroke="#f5f5f5"></path><path d="M601 192L546 97L508 143Z" fill="#f0f0f0" stroke="#f0f0f0"></path><path d="M495 124L391 109L388 137Z" fill="#f5f5f5" stroke="#f5f5f5"></path><path d="M546 97L517 86L495 124Z" fill="#e7e7e7" stroke="#e7e7e7"></path><path d="M637 315L541 294L540 332Z" fill="#f2f2f2" stroke="#f2f2f2"></path><path d="M598 233L657 231L601 192Z" fill="#e7e7e7" stroke="#e7e7e7"></path><path d="M319 361L412 306L387 270Z" fill="#f2f2f2" stroke="#f2f2f2"></path><path d="M319 361L386 367L412 306Z" fill="#eaeaea" stroke="#eaeaea"></path><path d="M398 410L455 420L451 391Z" fill="#f0f0f0" stroke="#f0f0f0"></path><path d="M642 279L649 259L598 233Z" fill="#f7f7f7" stroke="#f7f7f7"></path><path d="M601 192L636 113L546 97Z" fill="#f9f9f9" stroke="#f9f9f9"></path><path d="M452 74L391 109L495 124Z" fill="#ececec" stroke="#ececec"></path><path d="M388 137L391 109L383 139Z" fill="#f5f5f5" stroke="#f5f5f5"></path><path d="M542 426L564 386L536 361Z" fill="#e5e5e5" stroke="#e5e5e5"></path><path d="M536 361L591 377L540 332Z" fill="#e3e3e3" stroke="#e3e3e3"></path><path d="M331 126L334 181L383 139Z" fill="#f0f0f0" stroke="#f0f0f0"></path><path d="M383 139L334 181L375 232Z" fill="#f0f0f0" stroke="#f0f0f0"></path><path d="M375 232L324 267L387 270Z" fill="#f7f7f7" stroke="#f7f7f7"></path><path d="M310 222L324 267L375 232Z" fill="#e5e5e5" stroke="#e5e5e5"></path><path d="M591 377L637 315L540 332Z" fill="#e3e3e3" stroke="#e3e3e3"></path><path d="M642 279L666 277L649 259Z" fill="#eaeaea" stroke="#eaeaea"></path><path d="M666 277L657 231L649 259Z" fill="#e5e5e5" stroke="#e5e5e5"></path><path d="M649 259L657 231L598 233Z" fill="#f0f0f0" stroke="#f0f0f0"></path><path d="M564 386L591 377L536 361Z" fill="#e7e7e7" stroke="#e7e7e7"></path><path d="M473 67L452 74L495 124Z" fill="#e5e5e5" stroke="#e5e5e5"></path><path d="M401 74L388 101L391 109Z" fill="#e3e3e3" stroke="#e3e3e3"></path><path d="M364 90L331 126L383 139Z" fill="#eeeeee" stroke="#eeeeee"></path><path d="M517 86L473 67L495 124Z" fill="#ececec" stroke="#ececec"></path><path d="M522 12L473 67L517 86Z" fill="#ececec" stroke="#ececec"></path><path d="M542 426L578 395L564 386Z" fill="#f5f5f5" stroke="#f5f5f5"></path><path d="M564 386L578 395L591 377Z" fill="#ececec" stroke="#ececec"></path><path d="M659 347L679 303L637 315Z" fill="#f7f7f7" stroke="#f7f7f7"></path><path d="M334 181L310 222L375 232Z" fill="#e7e7e7" stroke="#e7e7e7"></path><path d="M398 410L451 391L432 377Z" fill="#f9f9f9" stroke="#f9f9f9"></path><path d="M451 391L542 426L536 361Z" fill="#e3e3e3" stroke="#e3e3e3"></path><path d="M679 303L642 279L637 315Z" fill="#ececec" stroke="#ececec"></path><path d="M679 303L666 277L642 279Z" fill="#f2f2f2" stroke="#f2f2f2"></path><path d="M309 163L302 229L310 222Z" fill="#f9f9f9" stroke="#f9f9f9"></path><path d="M310 222L302 229L324 267Z" fill="#f9f9f9" stroke="#f9f9f9"></path><path d="M452 74L401 74L391 109Z" fill="#e7e7e7" stroke="#e7e7e7"></path><path d="M364 90L383 139L391 109Z" fill="#f2f2f2" stroke="#f2f2f2"></path><path d="M334 181L309 163L310 222Z" fill="#ececec" stroke="#ececec"></path><path d="M361 55L401 74L415 0Z" fill="#eeeeee" stroke="#eeeeee"></path><path d="M319 361L361 381L386 367Z" fill="#ececec" stroke="#ececec"></path><path d="M386 367L398 410L432 377Z" fill="#eeeeee" stroke="#eeeeee"></path><path d="M319 361L387 270L324 267Z" fill="#e5e5e5" stroke="#e5e5e5"></path><path d="M361 381L398 410L386 367Z" fill="#e5e5e5" stroke="#e5e5e5"></path><path d="M656 133L647 134L688 203Z" fill="#f0f0f0" stroke="#f0f0f0"></path><path d="M688 203L647 134L601 192Z" fill="#e3e3e3" stroke="#e3e3e3"></path><path d="M546 97L567 64L517 86Z" fill="#f5f5f5" stroke="#f5f5f5"></path><path d="M455 420L542 426L451 391Z" fill="#ececec" stroke="#ececec"></path><path d="M636 113L567 64L546 97Z" fill="#eaeaea" stroke="#eaeaea"></path><path d="M364 90L391 109L388 101Z" fill="#f2f2f2" stroke="#f2f2f2"></path><path d="M331 126L309 163L334 181Z" fill="#e7e7e7" stroke="#e7e7e7"></path><path d="M401 74L364 90L388 101Z" fill="#eaeaea" stroke="#eaeaea"></path><path d="M647 134L636 113L601 192Z" fill="#f7f7f7" stroke="#f7f7f7"></path><path d="M658 132L656 133L686 144Z" fill="#f5f5f5" stroke="#f5f5f5"></path><path d="M647 134L656 133L636 113Z" fill="#f5f5f5" stroke="#f5f5f5"></path><path d="M659 347L637 315L591 377Z" fill="#eeeeee" stroke="#eeeeee"></path><path d="M718 220L688 203L657 231Z" fill="#f2f2f2" stroke="#f2f2f2"></path><path d="M659 347L591 377L637 405Z" fill="#eeeeee" stroke="#eeeeee"></path><path d="M671 352L659 347L637 405Z" fill="#f2f2f2" stroke="#f2f2f2"></path><path d="M688 203L601 192L657 231Z" fill="#eeeeee" stroke="#eeeeee"></path><path d="M656 133L658 132L636 113Z" fill="#eaeaea" stroke="#eaeaea"></path><path d="M709 266L657 231L666 277Z" fill="#ececec" stroke="#ececec"></path><path d="M287 315L319 361L324 267Z" fill="#f2f2f2" stroke="#f2f2f2"></path><path d="M359 437L389 445L398 410Z" fill="#e5e5e5" stroke="#e5e5e5"></path><path d="M491 474L502 454L455 420Z" fill="#e5e5e5" stroke="#e5e5e5"></path><path d="M455 420L502 454L542 426Z" fill="#eaeaea" stroke="#eaeaea"></path><path d="M637 405L591 377L578 395Z" fill="#f2f2f2" stroke="#f2f2f2"></path><path d="M302 229L287 315L324 267Z" fill="#ececec" stroke="#ececec"></path><path d="M238 238L287 315L302 229Z" fill="#f7f7f7" stroke="#f7f7f7"></path><path d="M637 405L578 395L628 461Z" fill="#e5e5e5" stroke="#e5e5e5"></path><path d="M659 347L671 352L679 303Z" fill="#e5e5e5" stroke="#e5e5e5"></path><path d="M287 315L302 351L319 361Z" fill="#eaeaea" stroke="#eaeaea"></path><path d="M359 437L398 410L361 381Z" fill="#eeeeee" stroke="#eeeeee"></path><path d="M361 55L334 85L364 90Z" fill="#eaeaea" stroke="#eaeaea"></path><path d="M364 90L334 85L331 126Z" fill="#f2f2f2" stroke="#f2f2f2"></path><path d="M331 126L274 88L309 163Z" fill="#e7e7e7" stroke="#e7e7e7"></path><path d="M662 83L636 113L658 132Z" fill="#eaeaea" stroke="#eaeaea"></path><path d="M662 83L639 81L636 113Z" fill="#e5e5e5" stroke="#e5e5e5"></path><path d="M636 113L616 59L567 64Z" fill="#f0f0f0" stroke="#f0f0f0"></path><path d="M688 203L686 144L656 133Z" fill="#eaeaea" stroke="#eaeaea"></path><path d="M628 461L578 395L542 426Z" fill="#f0f0f0" stroke="#f0f0f0"></path><path d="M722 272L709 266L679 303Z" fill="#eaeaea" stroke="#eaeaea"></path><path d="M679 303L709 266L666 277Z" fill="#f0f0f0" stroke="#f0f0f0"></path><path d="M688 203L752 135L686 144Z" fill="#eaeaea" stroke="#eaeaea"></path><path d="M639 81L616 59L636 113Z" fill="#eeeeee" stroke="#eeeeee"></path><path d="M478 0L452 74L473 67Z" fill="#f2f2f2" stroke="#f2f2f2"></path><path d="M415 0L401 74L452 74Z" fill="#e7e7e7" stroke="#e7e7e7"></path><path d="M401 74L361 55L364 90Z" fill="#f0f0f0" stroke="#f0f0f0"></path><path d="M522 12L517 86L567 64Z" fill="#e7e7e7" stroke="#e7e7e7"></path><path d="M359 437L361 381L319 361Z" fill="#ececec" stroke="#ececec"></path><path d="M398 410L389 445L455 420Z" fill="#f9f9f9" stroke="#f9f9f9"></path><path d="M709 266L718 220L657 231Z" fill="#f9f9f9" stroke="#f9f9f9"></path><path d="M597 0L522 12L567 64Z" fill="#eeeeee" stroke="#eeeeee"></path><path d="M407 514L491 474L455 420Z" fill="#eaeaea" stroke="#eaeaea"></path><path d="M502 454L530 479L542 426Z" fill="#f0f0f0" stroke="#f0f0f0"></path><path d="M269 401L359 437L319 361Z" fill="#eaeaea" stroke="#eaeaea"></path><path d="M389 445L407 514L455 420Z" fill="#ececec" stroke="#ececec"></path><path d="M639 81L676 38L616 59Z" fill="#f5f5f5" stroke="#f5f5f5"></path><path d="M696 96L662 83L658 132Z" fill="#f7f7f7" stroke="#f7f7f7"></path><path d="M696 96L658 132L686 144Z" fill="#e3e3e3" stroke="#e3e3e3"></path><path d="M709 266L722 272L718 220Z" fill="#ececec" stroke="#ececec"></path><path d="M719 320L722 272L679 303Z" fill="#f2f2f2" stroke="#f2f2f2"></path><path d="M359 437L384 456L389 445Z" fill="#f7f7f7" stroke="#f7f7f7"></path><path d="M522 12L494 0L473 67Z" fill="#f7f7f7" stroke="#f7f7f7"></path><path d="M494 0L478 0L473 67Z" fill="#f5f5f5" stroke="#f5f5f5"></path><path d="M473 540L522 480L491 474Z" fill="#eeeeee" stroke="#eeeeee"></path><path d="M491 474L522 480L502 454Z" fill="#f2f2f2" stroke="#f2f2f2"></path><path d="M522 480L530 479L502 454Z" fill="#e5e5e5" stroke="#e5e5e5"></path><path d="M770 321L719 320L789 356Z" fill="#f0f0f0" stroke="#f0f0f0"></path><path d="M671 352L719 320L679 303Z" fill="#f0f0f0" stroke="#f0f0f0"></path><path d="M222 161L302 229L309 163Z" fill="#eaeaea" stroke="#eaeaea"></path><path d="M222 161L238 238L302 229Z" fill="#e3e3e3" stroke="#e3e3e3"></path><path d="M287 315L253 353L302 351Z" fill="#e7e7e7" stroke="#e7e7e7"></path><path d="M478 0L415 0L452 74Z" fill="#e5e5e5" stroke="#e5e5e5"></path><path d="M713 70L696 96L752 135Z" fill="#f0f0f0" stroke="#f0f0f0"></path><path d="M629 0L597 0L616 59Z" fill="#f0f0f0" stroke="#f0f0f0"></path><path d="M616 59L597 0L567 64Z" fill="#ececec" stroke="#ececec"></path><path d="M209 322L253 353L287 315Z" fill="#e3e3e3" stroke="#e3e3e3"></path><path d="M302 351L269 401L319 361Z" fill="#eaeaea" stroke="#eaeaea"></path><path d="M615 487L628 461L542 426Z" fill="#ececec" stroke="#ececec"></path><path d="M721 428L719 320L671 352Z" fill="#eaeaea" stroke="#eaeaea"></path><path d="M257 67L274 88L279 14Z" fill="#e7e7e7" stroke="#e7e7e7"></path><path d="M334 85L274 88L331 126Z" fill="#eeeeee" stroke="#eeeeee"></path><path d="M322 0L334 85L361 55Z" fill="#f2f2f2" stroke="#f2f2f2"></path><path d="M722 272L750 275L718 220Z" fill="#e3e3e3" stroke="#e3e3e3"></path><path d="M752 135L696 96L686 144Z" fill="#e3e3e3" stroke="#e3e3e3"></path><path d="M719 320L750 275L722 272Z" fill="#f5f5f5" stroke="#f5f5f5"></path><path d="M770 321L750 275L719 320Z" fill="#f2f2f2" stroke="#f2f2f2"></path><path d="M676 38L639 81L662 83Z" fill="#ececec" stroke="#ececec"></path><path d="M522 12L597 0L494 0Z" fill="#e7e7e7" stroke="#e7e7e7"></path><path d="M415 0L370 0L361 55Z" fill="#ececec" stroke="#ececec"></path><path d="M257 392L269 401L302 351Z" fill="#eeeeee" stroke="#eeeeee"></path><path d="M359 437L325 473L384 456Z" fill="#e3e3e3" stroke="#e3e3e3"></path><path d="M247 397L257 392L253 353Z" fill="#ececec" stroke="#ececec"></path><path d="M253 353L257 392L302 351Z" fill="#f0f0f0" stroke="#f0f0f0"></path><path d="M269 401L322 462L359 437Z" fill="#f7f7f7" stroke="#f7f7f7"></path><path d="M384 456L407 514L389 445Z" fill="#e5e5e5" stroke="#e5e5e5"></path><path d="M325 473L322 462L272 454Z" fill="#eeeeee" stroke="#eeeeee"></path><path d="M530 479L615 487L542 426Z" fill="#eaeaea" stroke="#eaeaea"></path><path d="M721 428L671 352L637 405Z" fill="#f9f9f9" stroke="#f9f9f9"></path><path d="M621 507L615 487L573 540Z" fill="#f7f7f7" stroke="#f7f7f7"></path><path d="M713 70L676 38L662 83Z" fill="#e7e7e7" stroke="#e7e7e7"></path><path d="M223 153L222 161L309 163Z" fill="#e7e7e7" stroke="#e7e7e7"></path><path d="M238 238L209 322L287 315Z" fill="#f9f9f9" stroke="#f9f9f9"></path><path d="M274 88L223 153L309 163Z" fill="#f9f9f9" stroke="#f9f9f9"></path><path d="M676 38L629 0L616 59Z" fill="#f7f7f7" stroke="#f7f7f7"></path><path d="M223 153L221 157L222 161Z" fill="#e5e5e5" stroke="#e5e5e5"></path><path d="M222 161L209 209L238 238Z" fill="#f0f0f0" stroke="#f0f0f0"></path><path d="M142 178L209 209L222 161Z" fill="#f9f9f9" stroke="#f9f9f9"></path><path d="M415 0L356 -8L370 0Z" fill="#f7f7f7" stroke="#f7f7f7"></path><path d="M370 0L329 0L361 55Z" fill="#f5f5f5" stroke="#f5f5f5"></path><path d="M478 0L356 -8L415 0Z" fill="#e3e3e3" stroke="#e3e3e3"></path><path d="M494 0L356 -8L478 0Z" fill="#f2f2f2" stroke="#f2f2f2"></path><path d="M597 0L356 -8L494 0Z" fill="#eeeeee" stroke="#eeeeee"></path><path d="M629 0L356 -8L597 0Z" fill="#e3e3e3" stroke="#e3e3e3"></path><path d="M696 96L713 70L662 83Z" fill="#e5e5e5" stroke="#e5e5e5"></path><path d="M752 135L688 203L718 220Z" fill="#f9f9f9" stroke="#f9f9f9"></path><path d="M272 454L322 462L269 401Z" fill="#f5f5f5" stroke="#f5f5f5"></path><path d="M322 462L325 473L359 437Z" fill="#eeeeee" stroke="#eeeeee"></path><path d="M573 540L615 487L530 479Z" fill="#eaeaea" stroke="#eaeaea"></path><path d="M209 209L204 237L238 238Z" fill="#f0f0f0" stroke="#f0f0f0"></path><path d="M325 473L407 514L384 456Z" fill="#e3e3e3" stroke="#e3e3e3"></path><path d="M778 225L752 135L718 220Z" fill="#f5f5f5" stroke="#f5f5f5"></path><path d="M182 364L247 397L253 353Z" fill="#ececec" stroke="#ececec"></path><path d="M257 392L247 397L269 401Z" fill="#e7e7e7" stroke="#e7e7e7"></path><path d="M356 -8L329 0L370 0Z" fill="#f5f5f5" stroke="#f5f5f5"></path><path d="M274 88L202 101L223 153Z" fill="#f7f7f7" stroke="#f7f7f7"></path><path d="M223 153L202 101L221 157Z" fill="#e5e5e5" stroke="#e5e5e5"></path><path d="M279 14L274 88L334 85Z" fill="#eaeaea" stroke="#eaeaea"></path><path d="M204 237L209 322L238 238Z" fill="#f5f5f5" stroke="#f5f5f5"></path><path d="M750 275L778 225L718 220Z" fill="#f7f7f7" stroke="#f7f7f7"></path><path d="M356 -8L322 0L329 0Z" fill="#e3e3e3" stroke="#e3e3e3"></path><path d="M329 0L322 0L361 55Z" fill="#f5f5f5" stroke="#f5f5f5"></path><path d="M721 428L637 405L628 461Z" fill="#e3e3e3" stroke="#e3e3e3"></path><path d="M750 275L814 272L778 225Z" fill="#f5f5f5" stroke="#f5f5f5"></path><path d="M564 540L530 479L522 480Z" fill="#f0f0f0" stroke="#f0f0f0"></path><path d="M615 487L646 502L628 461Z" fill="#ececec" stroke="#ececec"></path><path d="M439 540L452 537L407 514Z" fill="#f9f9f9" stroke="#f9f9f9"></path><path d="M407 514L452 537L491 474Z" fill="#e7e7e7" stroke="#e7e7e7"></path><path d="M696 487L721 428L628 461Z" fill="#eaeaea" stroke="#eaeaea"></path><path d="M452 537L473 540L491 474Z" fill="#eaeaea" stroke="#eaeaea"></path><path d="M182 364L238 407L247 397Z" fill="#f0f0f0" stroke="#f0f0f0"></path><path d="M247 397L238 407L269 401Z" fill="#f9f9f9" stroke="#f9f9f9"></path><path d="M707 0L668 0L676 38Z" fill="#f2f2f2" stroke="#f2f2f2"></path><path d="M676 38L668 0L629 0Z" fill="#eaeaea" stroke="#eaeaea"></path><path d="M629 0L668 0L356 -8Z" fill="#ececec" stroke="#ececec"></path><path d="M420 540L439 540L407 514Z" fill="#e5e5e5" stroke="#e5e5e5"></path><path d="M452 537L439 540L473 540Z" fill="#f9f9f9" stroke="#f9f9f9"></path><path d="M238 407L272 454L269 401Z" fill="#e3e3e3" stroke="#e3e3e3"></path><path d="M330 540L420 540L407 514Z" fill="#ececec" stroke="#ececec"></path><path d="M209 322L198 335L253 353Z" fill="#f5f5f5" stroke="#f5f5f5"></path><path d="M176 314L198 335L209 322Z" fill="#f5f5f5" stroke="#f5f5f5"></path><path d="M624 530L646 502L621 507Z" fill="#f9f9f9" stroke="#f9f9f9"></path><path d="M621 507L646 502L615 487Z" fill="#f2f2f2" stroke="#f2f2f2"></path><path d="M330 540L407 514L325 473Z" fill="#f2f2f2" stroke="#f2f2f2"></path><path d="M322 0L279 14L334 85Z" fill="#f7f7f7" stroke="#f7f7f7"></path><path d="M473 540L564 540L522 480Z" fill="#eaeaea" stroke="#eaeaea"></path><path d="M564 540L573 540L530 479Z" fill="#e3e3e3" stroke="#e3e3e3"></path><path d="M198 92L202 101L257 67Z" fill="#ececec" stroke="#ececec"></path><path d="M257 67L202 101L274 88Z" fill="#eeeeee" stroke="#eeeeee"></path><path d="M142 178L140 249L209 209Z" fill="#ececec" stroke="#ececec"></path><path d="M209 209L140 249L204 237Z" fill="#f2f2f2" stroke="#f2f2f2"></path><path d="M204 237L176 314L209 322Z" fill="#f2f2f2" stroke="#f2f2f2"></path><path d="M605 540L624 530L621 507Z" fill="#eaeaea" stroke="#eaeaea"></path><path d="M646 502L696 487L628 461Z" fill="#ececec" stroke="#ececec"></path><path d="M814 272L805 202L778 225Z" fill="#e5e5e5" stroke="#e5e5e5"></path><path d="M778 225L805 202L752 135Z" fill="#ececec" stroke="#ececec"></path><path d="M797 0L707 0L713 70Z" fill="#e5e5e5" stroke="#e5e5e5"></path><path d="M713 70L707 0L676 38Z" fill="#f7f7f7" stroke="#f7f7f7"></path><path d="M140 249L176 314L204 237Z" fill="#f0f0f0" stroke="#f0f0f0"></path><path d="M198 335L182 364L253 353Z" fill="#f0f0f0" stroke="#f0f0f0"></path><path d="M573 540L605 540L621 507Z" fill="#eeeeee" stroke="#eeeeee"></path><path d="M722 540L696 487L646 502Z" fill="#f7f7f7" stroke="#f7f7f7"></path><path d="M790 371L789 356L719 320Z" fill="#e5e5e5" stroke="#e5e5e5"></path><path d="M790 371L719 320L721 428Z" fill="#f0f0f0" stroke="#f0f0f0"></path><path d="M770 321L814 272L750 275Z" fill="#eeeeee" stroke="#eeeeee"></path><path d="M176 314L178 340L198 335Z" fill="#e5e5e5" stroke="#e5e5e5"></path><path d="M208 473L270 503L272 454Z" fill="#f5f5f5" stroke="#f5f5f5"></path><path d="M181 39L198 92L257 67Z" fill="#f5f5f5" stroke="#f5f5f5"></path><path d="M142 178L222 161L221 157Z" fill="#f7f7f7" stroke="#f7f7f7"></path><path d="M799 60L713 70L752 135Z" fill="#eeeeee" stroke="#eeeeee"></path><path d="M668 0L960 -7L356 -8Z" fill="#e7e7e7" stroke="#e7e7e7"></path><path d="M725 472L743 445L721 428Z" fill="#e3e3e3" stroke="#e3e3e3"></path><path d="M838 285L814 272L770 321Z" fill="#f2f2f2" stroke="#f2f2f2"></path><path d="M757 432L790 371L721 428Z" fill="#f7f7f7" stroke="#f7f7f7"></path><path d="M847 297L838 285L770 321Z" fill="#f9f9f9" stroke="#f9f9f9"></path><path d="M178 340L182 364L198 335Z" fill="#f7f7f7" stroke="#f7f7f7"></path><path d="M743 445L757 432L721 428Z" fill="#eeeeee" stroke="#eeeeee"></path><path d="M696 487L725 472L721 428Z" fill="#e3e3e3" stroke="#e3e3e3"></path><path d="M743 445L762 443L757 432Z" fill="#e5e5e5" stroke="#e5e5e5"></path><path d="M722 540L725 472L696 487Z" fill="#e5e5e5" stroke="#e5e5e5"></path><path d="M81 320L171 358L178 340Z" fill="#e5e5e5" stroke="#e5e5e5"></path><path d="M178 340L171 358L182 364Z" fill="#e3e3e3" stroke="#e3e3e3"></path><path d="M208 473L272 454L238 407Z" fill="#f9f9f9" stroke="#f9f9f9"></path><path d="M151 383L171 358L81 320Z" fill="#eeeeee" stroke="#eeeeee"></path><path d="M270 503L325 473L272 454Z" fill="#e5e5e5" stroke="#e5e5e5"></path><path d="M288 540L330 540L325 473Z" fill="#e3e3e3" stroke="#e3e3e3"></path><path d="M322 0L249 0L279 14Z" fill="#e3e3e3" stroke="#e3e3e3"></path><path d="M279 14L249 0L257 67Z" fill="#eeeeee" stroke="#eeeeee"></path><path d="M356 -8L249 0L322 0Z" fill="#e5e5e5" stroke="#e5e5e5"></path><path d="M165 381L238 407L182 364Z" fill="#f0f0f0" stroke="#f0f0f0"></path><path d="M725 472L762 443L743 445Z" fill="#f7f7f7" stroke="#f7f7f7"></path><path d="M810 447L835 400L790 371Z" fill="#f0f0f0" stroke="#f0f0f0"></path><path d="M839 167L821 150L805 202Z" fill="#f0f0f0" stroke="#f0f0f0"></path><path d="M805 202L821 150L752 135Z" fill="#f0f0f0" stroke="#f0f0f0"></path><path d="M821 150L820 144L752 135Z" fill="#eeeeee" stroke="#eeeeee"></path><path d="M142 178L221 157L202 101Z" fill="#eeeeee" stroke="#eeeeee"></path><path d="M117 178L142 178L116 108Z" fill="#f2f2f2" stroke="#f2f2f2"></path><path d="M116 108L142 178L202 101Z" fill="#eaeaea" stroke="#eaeaea"></path><path d="M151 383L165 381L171 358Z" fill="#f2f2f2" stroke="#f2f2f2"></path><path d="M171 358L165 381L182 364Z" fill="#e5e5e5" stroke="#e5e5e5"></path><path d="M847 297L770 321L789 356Z" fill="#f7f7f7" stroke="#f7f7f7"></path><path d="M814 272L882 269L805 202Z" fill="#e3e3e3" stroke="#e3e3e3"></path><path d="M826 363L789 356L790 371Z" fill="#f0f0f0" stroke="#f0f0f0"></path><path d="M901 243L839 167L805 202Z" fill="#f2f2f2" stroke="#f2f2f2"></path><path d="M821 150L850 161L820 144Z" fill="#f5f5f5" stroke="#f5f5f5"></path><path d="M820 144L799 60L752 135Z" fill="#f9f9f9" stroke="#f9f9f9"></path><path d="M232 530L288 540L270 503Z" fill="#f0f0f0" stroke="#f0f0f0"></path><path d="M270 503L288 540L325 473Z" fill="#f2f2f2" stroke="#f2f2f2"></path><path d="M835 400L826 363L790 371Z" fill="#f9f9f9" stroke="#f9f9f9"></path><path d="M810 44L799 60L841 43Z" fill="#f2f2f2" stroke="#f2f2f2"></path><path d="M146 423L208 473L238 407Z" fill="#ececec" stroke="#ececec"></path><path d="M826 363L847 297L789 356Z" fill="#e5e5e5" stroke="#e5e5e5"></path><path d="M901 243L850 161L839 167Z" fill="#eaeaea" stroke="#eaeaea"></path><path d="M81 320L178 340L176 314Z" fill="#e3e3e3" stroke="#e3e3e3"></path><path d="M165 381L146 423L238 407Z" fill="#e7e7e7" stroke="#e7e7e7"></path><path d="M249 0L181 39L257 67Z" fill="#eaeaea" stroke="#eaeaea"></path><path d="M882 269L814 272L838 285Z" fill="#f5f5f5" stroke="#f5f5f5"></path><path d="M839 167L850 161L821 150Z" fill="#f9f9f9" stroke="#f9f9f9"></path><path d="M116 108L202 101L198 92Z" fill="#f0f0f0" stroke="#f0f0f0"></path><path d="M142 178L117 178L140 249Z" fill="#e5e5e5" stroke="#e5e5e5"></path><path d="M114 400L146 404L151 383Z" fill="#f7f7f7" stroke="#f7f7f7"></path><path d="M851 89L799 60L820 144Z" fill="#e5e5e5" stroke="#e5e5e5"></path><path d="M799 60L797 0L713 70Z" fill="#eeeeee" stroke="#eeeeee"></path><path d="M83 310L176 314L140 249Z" fill="#f5f5f5" stroke="#f5f5f5"></path><path d="M151 383L146 404L165 381Z" fill="#e5e5e5" stroke="#e5e5e5"></path><path d="M769 540L810 447L762 443Z" fill="#f0f0f0" stroke="#f0f0f0"></path><path d="M810 447L790 371L757 432Z" fill="#e7e7e7" stroke="#e7e7e7"></path><path d="M624 530L722 540L646 502Z" fill="#f9f9f9" stroke="#f9f9f9"></path><path d="M605 540L722 540L624 530Z" fill="#e5e5e5" stroke="#e5e5e5"></path><path d="M249 0L177 20L181 39Z" fill="#eeeeee" stroke="#eeeeee"></path><path d="M141 46L116 108L198 92Z" fill="#e3e3e3" stroke="#e3e3e3"></path><path d="M826 363L865 322L847 297Z" fill="#f0f0f0" stroke="#f0f0f0"></path><path d="M810 447L757 432L762 443Z" fill="#e5e5e5" stroke="#e5e5e5"></path><path d="M769 540L762 443L725 472Z" fill="#ececec" stroke="#ececec"></path><path d="M208 473L232 530L270 503Z" fill="#f7f7f7" stroke="#f7f7f7"></path><path d="M233 540L232 530L185 540Z" fill="#eaeaea" stroke="#eaeaea"></path><path d="M911 354L865 322L826 363Z" fill="#f5f5f5" stroke="#f5f5f5"></path><path d="M847 297L873 297L838 285Z" fill="#f5f5f5" stroke="#f5f5f5"></path><path d="M114 400L146 423L146 404Z" fill="#ececec" stroke="#ececec"></path><path d="M146 404L146 423L165 381Z" fill="#e3e3e3" stroke="#e3e3e3"></path><path d="M865 322L873 297L847 297Z" fill="#eeeeee" stroke="#eeeeee"></path><path d="M811 0L797 0L810 44Z" fill="#ececec" stroke="#ececec"></path><path d="M810 44L797 0L799 60Z" fill="#e3e3e3" stroke="#e3e3e3"></path><path d="M707 0L960 -7L668 0Z" fill="#f7f7f7" stroke="#f7f7f7"></path><path d="M185 540L232 530L208 473Z" fill="#eeeeee" stroke="#eeeeee"></path><path d="M232 530L233 540L288 540Z" fill="#eaeaea" stroke="#eaeaea"></path><path d="M855 85L851 89L895 114Z" fill="#e7e7e7" stroke="#e7e7e7"></path><path d="M850 161L851 89L820 144Z" fill="#eeeeee" stroke="#eeeeee"></path><path d="M141 46L198 92L181 39Z" fill="#f0f0f0" stroke="#f0f0f0"></path><path d="M893 285L882 269L873 297Z" fill="#f7f7f7" stroke="#f7f7f7"></path><path d="M873 297L882 269L838 285Z" fill="#f0f0f0" stroke="#f0f0f0"></path><path d="M46 243L91 255L117 178Z" fill="#e5e5e5" stroke="#e5e5e5"></path><path d="M117 178L91 255L140 249Z" fill="#f5f5f5" stroke="#f5f5f5"></path><path d="M177 20L141 46L181 39Z" fill="#eaeaea" stroke="#eaeaea"></path><path d="M895 114L851 89L850 161Z" fill="#f7f7f7" stroke="#f7f7f7"></path><path d="M851 89L841 43L799 60Z" fill="#eaeaea" stroke="#eaeaea"></path><path d="M116 108L96 160L117 178Z" fill="#f0f0f0" stroke="#f0f0f0"></path><path d="M722 540L756 540L725 472Z" fill="#eaeaea" stroke="#eaeaea"></path><path d="M826 0L811 0L810 44Z" fill="#f5f5f5" stroke="#f5f5f5"></path><path d="M797 0L960 -7L707 0Z" fill="#f7f7f7" stroke="#f7f7f7"></path><path d="M855 85L841 43L851 89Z" fill="#f0f0f0" stroke="#f0f0f0"></path><path d="M81 383L114 400L151 383Z" fill="#e5e5e5" stroke="#e5e5e5"></path><path d="M146 423L115 443L208 473Z" fill="#e7e7e7" stroke="#e7e7e7"></path><path d="M902 312L893 285L873 297Z" fill="#f9f9f9" stroke="#f9f9f9"></path><path d="M882 269L901 243L805 202Z" fill="#e3e3e3" stroke="#e3e3e3"></path><path d="M902 312L873 297L865 322Z" fill="#ececec" stroke="#ececec"></path><path d="M81 320L83 310L45 267Z" fill="#f0f0f0" stroke="#f0f0f0"></path><path d="M91 255L83 310L140 249Z" fill="#f0f0f0" stroke="#f0f0f0"></path><path d="M756 540L769 540L725 472Z" fill="#f9f9f9" stroke="#f9f9f9"></path><path d="M911 354L826 363L835 400Z" fill="#f9f9f9" stroke="#f9f9f9"></path><path d="M911 354L902 312L865 322Z" fill="#f2f2f2" stroke="#f2f2f2"></path><path d="M893 285L901 243L882 269Z" fill="#f5f5f5" stroke="#f5f5f5"></path><path d="M45 267L83 310L91 255Z" fill="#f5f5f5" stroke="#f5f5f5"></path><path d="M83 310L81 320L176 314Z" fill="#eaeaea" stroke="#eaeaea"></path><path d="M841 43L826 0L810 44Z" fill="#f9f9f9" stroke="#f9f9f9"></path><path d="M811 0L960 -7L797 0Z" fill="#f0f0f0" stroke="#f0f0f0"></path><path d="M62 100L84 124L116 108Z" fill="#eaeaea" stroke="#eaeaea"></path><path d="M116 108L84 124L96 160Z" fill="#f2f2f2" stroke="#f2f2f2"></path><path d="M177 20L145 0L141 46Z" fill="#f7f7f7" stroke="#f7f7f7"></path><path d="M249 0L145 0L177 20Z" fill="#f5f5f5" stroke="#f5f5f5"></path><path d="M356 -8L145 0L249 0Z" fill="#eaeaea" stroke="#eaeaea"></path><path d="M62 100L116 108L53 47Z" fill="#eaeaea" stroke="#eaeaea"></path><path d="M96 160L46 243L117 178Z" fill="#e7e7e7" stroke="#e7e7e7"></path><path d="M850 456L835 400L810 447Z" fill="#eaeaea" stroke="#eaeaea"></path><path d="M960 275L953 212L901 243Z" fill="#e3e3e3" stroke="#e3e3e3"></path><path d="M834 540L850 456L810 447Z" fill="#f2f2f2" stroke="#f2f2f2"></path><path d="M756 540L778 547L769 540Z" fill="#e5e5e5" stroke="#e5e5e5"></path><path d="M769 540L834 540L810 447Z" fill="#f9f9f9" stroke="#f9f9f9"></path><path d="M722 540L778 547L756 540Z" fill="#f7f7f7" stroke="#f7f7f7"></path><path d="M605 540L778 547L722 540Z" fill="#e3e3e3" stroke="#e3e3e3"></path><path d="M573 540L778 547L605 540Z" fill="#f9f9f9" stroke="#f9f9f9"></path><path d="M564 540L778 547L573 540Z" fill="#f9f9f9" stroke="#f9f9f9"></path><path d="M473 540L778 547L564 540Z" fill="#f0f0f0" stroke="#f0f0f0"></path><path d="M439 540L778 547L473 540Z" fill="#e5e5e5" stroke="#e5e5e5"></path><path d="M420 540L778 547L439 540Z" fill="#eaeaea" stroke="#eaeaea"></path><path d="M330 540L778 547L420 540Z" fill="#eaeaea" stroke="#eaeaea"></path><path d="M288 540L778 547L330 540Z" fill="#e7e7e7" stroke="#e7e7e7"></path><path d="M233 540L778 547L288 540Z" fill="#f2f2f2" stroke="#f2f2f2"></path><path d="M76 409L115 443L114 400Z" fill="#eaeaea" stroke="#eaeaea"></path><path d="M114 400L115 443L146 423Z" fill="#e5e5e5" stroke="#e5e5e5"></path><path d="M140 540L185 540L208 473Z" fill="#ececec" stroke="#ececec"></path><path d="M233 540L185 540L778 547Z" fill="#eeeeee" stroke="#eeeeee"></path><path d="M914 131L895 114L850 161Z" fill="#e7e7e7" stroke="#e7e7e7"></path><path d="M855 85L878 51L841 43Z" fill="#f9f9f9" stroke="#f9f9f9"></path><path d="M841 43L902 0L826 0Z" fill="#ececec" stroke="#ececec"></path><path d="M356 -8L132 0L145 0Z" fill="#e5e5e5" stroke="#e5e5e5"></path><path d="M145 0L132 0L141 46Z" fill="#f2f2f2" stroke="#f2f2f2"></path><path d="M81 320L81 383L151 383Z" fill="#eeeeee" stroke="#eeeeee"></path><path d="M81 383L86 398L114 400Z" fill="#e3e3e3" stroke="#e3e3e3"></path><path d="M914 87L878 51L855 85Z" fill="#e7e7e7" stroke="#e7e7e7"></path><path d="M850 456L911 354L835 400Z" fill="#eeeeee" stroke="#eeeeee"></path><path d="M960 275L901 243L893 285Z" fill="#f0f0f0" stroke="#f0f0f0"></path><path d="M951 175L914 131L850 161Z" fill="#eeeeee" stroke="#eeeeee"></path><path d="M57 134L58 151L84 124Z" fill="#f7f7f7" stroke="#f7f7f7"></path><path d="M84 124L58 151L96 160Z" fill="#eeeeee" stroke="#eeeeee"></path><path d="M81 320L35 356L81 383Z" fill="#f9f9f9" stroke="#f9f9f9"></path><path d="M951 175L850 161L901 243Z" fill="#f0f0f0" stroke="#f0f0f0"></path><path d="M895 114L914 87L855 85Z" fill="#ececec" stroke="#ececec"></path><path d="M58 151L46 243L96 160Z" fill="#e5e5e5" stroke="#e5e5e5"></path><path d="M46 243L45 267L91 255Z" fill="#eaeaea" stroke="#eaeaea"></path><path d="M62 100L57 134L84 124Z" fill="#f7f7f7" stroke="#f7f7f7"></path><path d="M58 151L17 211L46 243Z" fill="#eaeaea" stroke="#eaeaea"></path><path d="M35 356L76 409L81 383Z" fill="#f7f7f7" stroke="#f7f7f7"></path><path d="M81 383L76 409L86 398Z" fill="#f0f0f0" stroke="#f0f0f0"></path><path d="M86 398L76 409L114 400Z" fill="#f0f0f0" stroke="#f0f0f0"></path><path d="M115 443L140 540L208 473Z" fill="#e3e3e3" stroke="#e3e3e3"></path><path d="M960 328L923 334L960 355Z" fill="#ececec" stroke="#ececec"></path><path d="M911 354L923 334L902 312Z" fill="#e3e3e3" stroke="#e3e3e3"></path><path d="M53 47L116 108L141 46Z" fill="#e7e7e7" stroke="#e7e7e7"></path><path d="M919 84L914 87L914 131Z" fill="#e7e7e7" stroke="#e7e7e7"></path><path d="M914 131L914 87L895 114Z" fill="#f9f9f9" stroke="#f9f9f9"></path><path d="M778 547L834 540L769 540Z" fill="#f0f0f0" stroke="#f0f0f0"></path><path d="M960 355L923 334L911 354Z" fill="#eeeeee" stroke="#eeeeee"></path><path d="M99 540L140 540L115 443Z" fill="#f2f2f2" stroke="#f2f2f2"></path><path d="M185 540L140 540L778 547Z" fill="#f2f2f2" stroke="#f2f2f2"></path><path d="M960 90L919 84L914 131Z" fill="#ececec" stroke="#ececec"></path><path d="M914 87L919 84L878 51Z" fill="#e3e3e3" stroke="#e3e3e3"></path><path d="M878 51L902 0L841 43Z" fill="#e7e7e7" stroke="#e7e7e7"></path><path d="M778 547L838 546L834 540Z" fill="#f7f7f7" stroke="#f7f7f7"></path><path d="M834 540L912 475L850 456Z" fill="#e7e7e7" stroke="#e7e7e7"></path><path d="M960 275L893 285L902 312Z" fill="#e5e5e5" stroke="#e5e5e5"></path><path d="M132 0L84 7L141 46Z" fill="#f5f5f5" stroke="#f5f5f5"></path><path d="M0 280L35 356L45 267Z" fill="#f5f5f5" stroke="#f5f5f5"></path><path d="M45 267L35 356L81 320Z" fill="#f2f2f2" stroke="#f2f2f2"></path><path d="M76 409L56 454L115 443Z" fill="#f5f5f5" stroke="#f5f5f5"></path><path d="M953 212L951 175L901 243Z" fill="#e3e3e3" stroke="#e3e3e3"></path><path d="M7 179L58 151L0 151Z" fill="#eeeeee" stroke="#eeeeee"></path><path d="M7 179L17 211L58 151Z" fill="#e3e3e3" stroke="#e3e3e3"></path><path d="M46 243L0 274L45 267Z" fill="#f7f7f7" stroke="#f7f7f7"></path><path d="M58 151L57 134L0 151Z" fill="#f5f5f5" stroke="#f5f5f5"></path><path d="M923 334L960 275L902 312Z" fill="#e3e3e3" stroke="#e3e3e3"></path><path d="M953 212L960 200L951 175Z" fill="#eaeaea" stroke="#eaeaea"></path><path d="M960 328L960 275L923 334Z" fill="#e5e5e5" stroke="#e5e5e5"></path><path d="M960 275L960 200L953 212Z" fill="#f2f2f2" stroke="#f2f2f2"></path><path d="M960 0L902 0L919 84Z" fill="#eeeeee" stroke="#eeeeee"></path><path d="M84 7L53 47L141 46Z" fill="#ececec" stroke="#ececec"></path><path d="M960 149L914 131L951 175Z" fill="#e3e3e3" stroke="#e3e3e3"></path><path d="M919 84L902 0L878 51Z" fill="#e5e5e5" stroke="#e5e5e5"></path><path d="M826 0L960 -7L811 0Z" fill="#e3e3e3" stroke="#e3e3e3"></path><path d="M912 475L911 354L850 456Z" fill="#eeeeee" stroke="#eeeeee"></path><path d="M18 415L56 454L76 409Z" fill="#e7e7e7" stroke="#e7e7e7"></path><path d="M960 200L960 149L951 175Z" fill="#f9f9f9" stroke="#f9f9f9"></path><path d="M0 151L57 134L0 128Z" fill="#f2f2f2" stroke="#f2f2f2"></path><path d="M17 211L0 274L46 243Z" fill="#f7f7f7" stroke="#f7f7f7"></path><path d="M908 540L912 475L834 540Z" fill="#eeeeee" stroke="#eeeeee"></path><path d="M960 397L960 355L911 354Z" fill="#eeeeee" stroke="#eeeeee"></path><path d="M0 208L0 274L17 211Z" fill="#f0f0f0" stroke="#f0f0f0"></path><path d="M35 356L18 415L76 409Z" fill="#f5f5f5" stroke="#f5f5f5"></path><path d="M7 179L0 208L17 211Z" fill="#eaeaea" stroke="#eaeaea"></path><path d="M0 274L0 280L45 267Z" fill="#f9f9f9" stroke="#f9f9f9"></path><path d="M56 454L99 540L115 443Z" fill="#f9f9f9" stroke="#f9f9f9"></path><path d="M140 540L99 540L778 547Z" fill="#f2f2f2" stroke="#f2f2f2"></path><path d="M0 128L57 134L0 111Z" fill="#ececec" stroke="#ececec"></path><path d="M7 179L0 151L0 208Z" fill="#eeeeee" stroke="#eeeeee"></path><path d="M960 149L960 90L914 131Z" fill="#ececec" stroke="#ececec"></path><path d="M960 406L960 397L911 354Z" fill="#ececec" stroke="#ececec"></path><path d="M960 90L960 82L919 84Z" fill="#ececec" stroke="#ececec"></path><path d="M0 280L0 348L35 356Z" fill="#e7e7e7" stroke="#e7e7e7"></path><path d="M56 454L22 528L99 540Z" fill="#f0f0f0" stroke="#f0f0f0"></path><path d="M912 475L960 406L911 354Z" fill="#f7f7f7" stroke="#f7f7f7"></path><path d="M0 111L57 134L62 100Z" fill="#f5f5f5" stroke="#f5f5f5"></path><path d="M0 348L18 415L35 356Z" fill="#f7f7f7" stroke="#f7f7f7"></path><path d="M84 7L47 0L53 47Z" fill="#ececec" stroke="#ececec"></path><path d="M0 59L0 111L62 100Z" fill="#f2f2f2" stroke="#f2f2f2"></path><path d="M132 0L47 0L84 7Z" fill="#eaeaea" stroke="#eaeaea"></path><path d="M356 -8L47 0L132 0Z" fill="#eeeeee" stroke="#eeeeee"></path><path d="M0 59L62 100L53 47Z" fill="#f5f5f5" stroke="#f5f5f5"></path><path d="M838 546L908 540L834 540Z" fill="#f9f9f9" stroke="#f9f9f9"></path><path d="M912 475L960 463L960 406Z" fill="#e3e3e3" stroke="#e3e3e3"></path><path d="M838 546L910 540L908 540Z" fill="#f5f5f5" stroke="#f5f5f5"></path><path d="M908 540L910 540L912 475Z" fill="#f0f0f0" stroke="#f0f0f0"></path><path d="M910 540L952 476L912 475Z" fill="#e3e3e3" stroke="#e3e3e3"></path><path d="M5 0L0 59L53 47Z" fill="#f0f0f0" stroke="#f0f0f0"></path><path d="M0 348L0 426L18 415Z" fill="#ececec" stroke="#ececec"></path><path d="M18 415L0 451L56 454Z" fill="#ececec" stroke="#ececec"></path><path d="M952 476L960 463L912 475Z" fill="#e5e5e5" stroke="#e5e5e5"></path><path d="M960 82L960 0L919 84Z" fill="#f9f9f9" stroke="#f9f9f9"></path><path d="M902 0L960 -7L826 0Z" fill="#f5f5f5" stroke="#f5f5f5"></path><path d="M0 426L0 451L18 415Z" fill="#eeeeee" stroke="#eeeeee"></path><path d="M960 0L960 -7L902 0Z" fill="#e3e3e3" stroke="#e3e3e3"></path><path d="M356 -8L5 0L47 0Z" fill="#e7e7e7" stroke="#e7e7e7"></path><path d="M47 0L5 0L53 47Z" fill="#f2f2f2" stroke="#f2f2f2"></path><path d="M356 -8L0 0L5 0Z" fill="#f7f7f7" stroke="#f7f7f7"></path><path d="M5 0L0 0L0 59Z" fill="#e3e3e3" stroke="#e3e3e3"></path><path d="M0 451L22 528L56 454Z" fill="#f5f5f5" stroke="#f5f5f5"></path><path d="M838 546L960 540L910 540Z" fill="#e7e7e7" stroke="#e7e7e7"></path><path d="M910 540L960 540L952 476Z" fill="#ececec" stroke="#ececec"></path><path d="M952 476L960 540L960 463Z" fill="#e5e5e5" stroke="#e5e5e5"></path><path d="M0 451L0 539L22 528Z" fill="#e5e5e5" stroke="#e5e5e5"></path><path d="M22 528L0 540L99 540Z" fill="#ececec" stroke="#ececec"></path><path d="M99 540L0 540L778 547Z" fill="#e7e7e7" stroke="#e7e7e7"></path><path d="M0 539L0 540L22 528Z" fill="#f2f2f2" stroke="#f2f2f2"></path><path d="M0 451L-5 540L0 539Z" fill="#ececec" stroke="#ececec"></path><path d="M0 539L-5 540L0 540Z" fill="#f9f9f9" stroke="#f9f9f9"></path><path d="M0 540L-5 540L778 547Z" fill="#f0f0f0" stroke="#f0f0f0"></path><path d="M0 426L-5 540L0 451Z" fill="#eeeeee" stroke="#eeeeee"></path><path d="M0 348L-5 540L0 426Z" fill="#e3e3e3" stroke="#e3e3e3"></path><path d="M0 280L-5 540L0 348Z" fill="#f0f0f0" stroke="#f0f0f0"></path><path d="M0 274L-5 540L0 280Z" fill="#e5e5e5" stroke="#e5e5e5"></path><path d="M0 208L-5 540L0 274Z" fill="#e3e3e3" stroke="#e3e3e3"></path><path d="M0 151L-5 540L0 208Z" fill="#e5e5e5" stroke="#e5e5e5"></path><path d="M0 128L-5 540L0 151Z" fill="#eeeeee" stroke="#eeeeee"></path><path d="M0 111L-5 540L0 128Z" fill="#f9f9f9" stroke="#f9f9f9"></path><path d="M0 59L-5 540L0 111Z" fill="#e5e5e5" stroke="#e5e5e5"></path><path d="M0 0L-5 540L0 59Z" fill="#eeeeee" stroke="#eeeeee"></path></g></svg>