<?xml version="1.0" encoding="utf-8"?>
<!-- Generator: Adobe Illustrator 24.0.2, SVG Export Plug-In . SVG Version: 6.00 Build 0)  -->
<svg version="1.1" id="Forma" xmlns="http://www.w3.org/2000/svg" xmlns:xlink="http://www.w3.org/1999/xlink" x="0px" y="0px"
	 viewBox="0 0 1500 1500" style="enable-background:new 0 0 1500 1500;" xml:space="preserve">
<path d="M1218.52,951.1c-13.86-12.42-42.43-30.06-45.57-32.53c-3.58-2.81-9.58-18.05,2.47-27.72c4.41-3.53,7.72-7.83,9.93-11.28
	c1.84-2.87,0.54-6.68-2.67-7.8c-12.04-4.19-22.01-14.35-22.01-14.35s9.46-28.15-6.4-77.27c-15.86-49.12-10.48-137.91,21.5-174.76
	c31.98-36.83,26.87-67.29,26.87-67.29c-33.01-211.85-86.57-393.86-103.28-393.18c-16.72,0.68-47.76,68.57-47.76,68.57
	c-54.93,47.42-107.51,131.39-108.72,134.05c-1.28,2.81,0.75,24.76-16.65,16.73c-10.18-4.69-25.92-8.56-37.21-10.96
	c0,0,10.68,39.97,16.57,55.83c5.89,15.87,0,18.42,0,18.42s-7.68,6.13-11-12.79c-3.33-18.94-19.36-64.14-19.36-64.14
	s-10.4-41.28-16.55-45.37s-25.07,41.1-25.07,41.1s-67.21-192.58-85.29-199.4c-18.08-6.83-100.98,215.26-100.98,215.26
	s-21.92-52.62-31.38-52.62c-9.46,0-15.35,56.29-15.35,56.29s-15.94,60.02-17.92,70.87c-1.92,10.61-4.6,18.42-7.41,17.92
	c-2.81-0.52-5.63-2.57-3.33-20.99c2.3-18.41,15.36-65.44,15.36-65.44c-6.65,1.84-15.6,5.11-26.36,10.94
	c-24.57,13.31-29.94-92.36-69.34-119.49c-39.4-27.12-35.57-10.24-46.31-44.52c-10.74-34.29-21.74-68.06-47.07-8.19
	c-25.33,59.87-94.42,248.96-98.26,306.52c-3.83,57.57,19.88,98.41,62.52,108.31c0,0,3.25,6.65-8.53,7.17c0,0,7.33,6.99,12.11,8.19
	c0,0,7.67,13.65-7.68,47.42c-15.35,33.77-22.86,85.29-24.9,122.47c0,0-1.88,11.77-7.51,14.33c-5.63,2.56,17.23,1.03,22.68,12.29
	c5.46,11.26-12.45,28.49-18.42,32.4c-5.97,3.93,8.7,0,11.94,6.15c3.25,6.13-1.88,27.46,4.95,36.15c6.83,8.7,8.88,12.45,8.88,12.45
	c-37.1,48.62-84.95,35.83-78.56,55.01c6.4,19.2,88.79,42.39,92.2,52.28c3.41,9.9-20.8,12.97-24.73,33.61
	c-3.92,20.64,76.59,17.23,76.59,17.23c74.71,72.16,86.49,75.22,167.33,119.23c80.86,44.01,38.38,50.16,98.77,70.1
	c50.67,16.76,88.02,5.38,98.72,1.3c2.46-0.94,5.34-0.2,6.84,1.97c1.78,2.59,2.08,5.68,1.89,8.21c-0.18,2.33,2.13,4.06,4.35,3.26
	c29.12-10.41,72.39-48.44,115.07-68.98c45.37-21.84,17.4-23.88,67.21-58.34c42.48-29.38,153.26-76.18,185-89.33
	c3.98-1.65,4.91-6.84,1.77-9.77c-6.25-5.83-15.71-15.02-23.74-24.36c-13.3-15.48,1.41-22.21,1.41-22.21
	c45.18-19.51,65.44-39.15,73.18-48.52C1221.86,958.44,1221.55,953.81,1218.52,951.1z M1102.22,1024.07
	c0.87,1.59,0.28,3.59-1.31,4.47l-20.71,11.33c-0.5,0.28-1.04,0.41-1.58,0.41c-1.16,0-2.29-0.62-2.88-1.71
	c-0.87-1.59-0.28-3.6,1.31-4.47l20.71-11.33c0.5-0.28,1.04-0.41,1.58-0.41C1100.49,1022.36,1101.62,1022.98,1102.22,1024.07z
	 M769.63,935.63c0-0.91,0.38-1.74,0.96-2.33c0.6-0.6,1.43-0.96,2.33-0.96c1.82,0,3.28,1.48,3.28,3.3v18.19
	c0,0.9-0.36,1.74-0.96,2.33c-0.6,0.59-1.42,0.96-2.32,0.96c-1.82,0-3.3-1.48-3.3-3.3V935.63z M753.06,931.41
	c0-0.91,0.36-1.74,0.96-2.32c0.6-0.6,1.42-0.96,2.33-0.96c1.82,0,3.28,1.47,3.28,3.28v22.41c0,0.9-0.36,1.74-0.96,2.33
	c-0.59,0.59-1.41,0.96-2.32,0.96c-1.82,0-3.3-1.48-3.3-3.3V931.41z M737.54,919.91c0-0.9,0.36-1.74,0.96-2.33
	c0.59-0.59,1.41-0.96,2.32-0.96c1.82,0,3.3,1.48,3.3,3.3v33.91c0,0.9-0.36,1.74-0.96,2.33c-0.6,0.59-1.42,0.96-2.33,0.96
	c-1.82,0-3.28-1.48-3.28-3.3V919.91z M720.56,915.38c0-0.9,0.38-1.72,0.96-2.32c0.6-0.6,1.43-0.96,2.33-0.96
	c1.82,0,3.28,1.47,3.28,3.28v38.44c0,0.9-0.36,1.74-0.96,2.33c-0.6,0.59-1.42,0.96-2.32,0.96c-1.82,0-3.3-1.48-3.3-3.3V915.38z
	 M470.08,945.94c-65.6-36.35-67.49-119.14-63.81-160.81c0.16-1.83,2.88-1.74,2.91,0.12c0.52,41.74,7.87,123.33,55.75,147.37
	c-1.54-1.37-63.43-57.06-31.07-165.74c2.04-6.84,0.6-14.25-3.96-19.74l-17.33-20.87c-1.97-2.37,1.3-5.49,3.58-3.41l217.17,198.01
	l45.82,0.77c2.47,0.04,2.92,3.55,0.53,4.2l-45.83,12.43C633.84,938.27,559.64,995.58,470.08,945.94z M918.62,1046.24
	c1.78,11,4.35,35.05-21.24,58.34c-25.59,23.28-24.05,44.26-24.05,44.26s3.07,61.42-117.45,61.42c-120.51,0-126.9-61.42-126.9-61.42
	c-2.57-17.65-18.42-15.09-41.46-34.03c-23.03-18.93-12.54-56.79-5.63-68.05c6.91-11.26-16.37-9.46-16.37-9.46l-3.15-0.05
	c-6.73-0.11-7.32-9.94-0.64-10.82c0.33-0.05,0.66-0.09,0.99-0.14c32.74-4.35,40.68,3.07,27.63,28.4s-6.15,76.51,54.75,76.51
	c60.9,0,100.04-30.96,100.04-30.96v-27.56c0,0,0.76-9.03-7.6-8.53c-8.37,0.52-9.8,8.7-27.71,8.53
	c-17.91-0.18-34.54-18.25-42.48-44.6c-7.93-26.35,18.68-47.33,37.62-51.61c18.93-4.27,41.96-9.29,88.9-2.38
	c46.94,6.92,42.35,43.51,40.81,51.95c-1.54,8.44-23.28,42.98-39.91,45.79c-16.63,2.81-41.73-2.3-41.73-2.3v30.78
	c0,0,26.34,30.62,82.51,26.53c56.18-4.09,79.98-58.85,74.09-78.29c-5.8-19.16,45.7-30.87,47.23-31.21
	C955.54,1017.96,916.86,1035.43,918.62,1046.24z M860.28,929.57l-14.41,15.35l-30.94-33.74c-1.11-1.22,0.38-3.05,1.79-2.2
	l34.61,20.59l238.37-189.24c1.49-1.18,3.41,0.8,2.18,2.25l-9.25,10.95c0,0,40.94,190.37-109.51,212.37
	c0,0,134.58-1.54,123.32-177.06c0,0,25.59,139.71-76.5,177.06C917.84,1003.27,860.28,929.57,860.28,929.57z M1107.52,1044.12
	l-46.38,25.38c-0.5,0.28-1.04,0.41-1.58,0.41c-1.16,0-2.29-0.62-2.88-1.71c-0.87-1.59-0.28-3.59,1.3-4.47l46.39-25.38
	c0.5-0.27,1.04-0.4,1.57-0.4c1.16,0,2.3,0.62,2.9,1.71C1109.7,1041.26,1109.11,1043.25,1107.52,1044.12z"/>
<path d="M1163.05,680.87l71.05-42.64c0,0-42.47-71.98,19.96-103.2c62.43-31.22,120.77,27.12,91.6,94.16c0,0-10.3,18,7.55,17.44
	c17.7-0.55,73.65-5.67,73.65,72.45s-107.46,89.77-139.19,23.39l-110.81,58.14C1176.85,800.62,1155.89,756.61,1163.05,680.87z"/>
<path d="M338.23,685.31l-78.51-47.08c0,0,42.47-71.98-19.96-103.2s-120.77,27.12-91.6,94.16c0,0,10.3,18-7.55,17.44
	c-17.7-0.55-73.65-5.67-73.65,72.45s107.46,89.77,139.19,23.39l110.81,58.14C316.97,800.62,314.01,759,338.23,685.31z"/>
<g>
	<path d="M860.51,1145.77c-0.15-0.77-0.26-0.01-0.6,0.48L860.51,1145.77z"/>
	<path d="M859.92,1146.25l-0.42,0.34C859.66,1146.55,859.8,1146.42,859.92,1146.25z"/>
	<path d="M856.3,1149.7c0.39-1.18,1.8-1.76,1.7-2.8C856.91,1147.48,855.87,1148.94,856.3,1149.7z"/>
	<polygon points="857.81,1148.74 857.59,1148.36 857.41,1149.53 	"/>
	<polygon points="858.56,1148.45 858.35,1148.46 857.63,1149.91 	"/>
	<path d="M853.52,1152.41l0.67-0.94c1.13-0.43,0.1,1.03,0.86,0.74c0.94-1.08-0.55-1.15,0.77-2.37c-0.49-0.24-1.89,2.15-2.33,1.39
		C852.3,1152.2,853.81,1151.62,853.52,1152.41z"/>
	<path d="M806.38,1174.9c0-0.07-0.02-0.12-0.03-0.18C806.32,1174.82,806.3,1174.91,806.38,1174.9z"/>
	<path d="M795.88,1160.29c0.01-0.14-0.01-0.26-0.04-0.37c-0.04,0.1-0.07,0.19-0.08,0.28L795.88,1160.29z"/>
	<path d="M814.28,1183.86c0.07,0.28,0.16,0.52,0.25,0.74C814.55,1184.42,814.5,1184.18,814.28,1183.86z"/>
	<path d="M739.25,1172.67c0.07,0,0.16-0.02,0.25-0.07c0-0.01,0-0.02-0.01-0.04l-0.31-0.02L739.25,1172.67z"/>
	<path d="M787.3,1169.24c-0.19,0.23-0.36,0.47-0.49,0.71C787.14,1169.57,787.27,1169.37,787.3,1169.24z"/>
	<path d="M819.43,1189.78c-0.11-0.06-0.22-0.09-0.32-0.15c0.09,0.08,0.22,0.17,0.37,0.26l-0.04-0.1
		C819.44,1189.78,819.44,1189.78,819.43,1189.78z"/>
	<path d="M797.87,1165.27c-0.09-0.25-0.19-0.46-0.3-0.63C797.64,1164.87,797.75,1165.08,797.87,1165.27z"/>
	<path d="M841.22,1164.96c-0.27,0.19-0.41,0.43-0.5,0.67C840.96,1165.57,841.15,1165.38,841.22,1164.96z"/>
	<path d="M836.81,1170.1c0.01-0.01,0.01-0.02,0.02-0.03C836.73,1170.03,836.74,1170.06,836.81,1170.1z"/>
	<path d="M833.89,1173.3l0.03-0.07C833.84,1173.22,833.81,1173.23,833.89,1173.3z"/>
	<path d="M840.73,1165.64c-0.62,0.2-1.52-0.37-1.13,0.94l0.21-0.01c-0.49,0.15-0.57,0.93-0.87,1.33c0.12,0.03,0.22,0.05,0.33,0.05
		c0.18-0.18,0.42-0.41,0.82-0.75C840.67,1166.91,840.52,1166.25,840.73,1165.64z"/>
	<path d="M806.6,1174.84C806.46,1175.01,806.81,1175.33,806.6,1174.84L806.6,1174.84z"/>
	<path d="M810.57,1179.2c-0.1-0.16-0.19-0.33-0.29-0.5C810.35,1178.88,810.42,1179.05,810.57,1179.2z"/>
	<path d="M829.06,1185.78c-0.04,0.02-0.07,0.03-0.1,0.05C829.03,1185.93,829.07,1185.85,829.06,1185.78z"/>
	<path d="M810,1178.26c0.1,0.14,0.19,0.29,0.29,0.44C810.23,1178.54,810.16,1178.39,810,1178.26z"/>
	<path d="M822.59,1190.33c-0.04,0-0.08-0.01-0.11-0.01C822.5,1190.33,822.54,1190.34,822.59,1190.33z"/>
	<path d="M680.82,1176.59c0.39,0.23,0.38,0.63,0.62,0.98c1.21,0.07-1.41-1.32,0.05-0.9c-0.31-0.28-0.62-0.43-0.92-0.55l-0.05,0.93
		C681.32,1177.39,680.29,1176.49,680.82,1176.59z"/>
	<path d="M737.02,1167.42l0.07,0.19c0.18-0.31,0.33-0.28,0.02-0.96c-0.78-0.17-0.77,1.05-1.88,0.55c0.17,0.13,0.35,0.39,0.48,0.66
		C735.79,1167.24,736.43,1167.29,737.02,1167.42z"/>
	<path d="M735.71,1167.86c0,0.02-0.01,0.03-0.01,0.05c-0.03,0.08-0.04,0.16-0.04,0.23c0.09,0.12,0.17,0.26,0.2,0.39
		C735.89,1168.36,735.83,1168.11,735.71,1167.86z"/>
	<path d="M688.48,1183.81c0.04,0.03,0.07,0.05,0.1,0.07C688.52,1183.73,688.5,1183.73,688.48,1183.81z"/>
	<path d="M781.15,1162.26c0.08-0.21,0.16-0.42,0.21-0.6C781.18,1161.93,781.14,1162.11,781.15,1162.26z"/>
	<path d="M742.94,1176.06c0.06,0.16,0.14,0.32,0.24,0.48c0.08,0.08,0.14,0.14,0.23,0.24L742.94,1176.06z"/>
	<path d="M720.13,1159.52c-0.31-0.9-0.01,0.09-0.34-0.24c0.05,0.18,0.11,0.34,0.17,0.48
		C720.11,1159.8,720.07,1159.61,720.13,1159.52z"/>
	<path d="M680.59,1176.04c-0.02,0.02-0.03,0.04-0.06,0.05c0.02,0.01,0.03,0.01,0.05,0.02L680.59,1176.04z"/>
	<path d="M709.23,1173.63c-0.1,0.07-0.2,0.13-0.29,0.19C709.01,1173.8,709.11,1173.74,709.23,1173.63z"/>
	<path d="M737.97,1171.3l1.59,2.1l-0.32-0.73C738.7,1172.63,738.59,1171.28,737.97,1171.3z"/>
	<path d="M722.49,1162.17l-0.25,0.49c2.46,1.4,3.13,4.7,5.59,5.41c0.6,3.59,2.53,0.67,3.11,3.94l0.13-0.23
		c5.73,7.73,11.34,16.3,17.58,22.84l-0.29,0.2c0.48,0.63,0.96,1.26,1.43,1.89c1.04,1.34,2.26,2.28,3.68,2.92
		c1.42,0.62,3.01,0.89,4.56,0.73c1.55-0.14,3.06-0.7,4.33-1.58c1.29-0.82,2.39-2.32,3.41-3.49c2.25-2.65,4.47-5.31,6.68-7.98
		c4.41-5.33,8.8-10.68,13.4-15.91c0.62-1.23-0.49-1.11-0.05-2.25c0.35-0.36,1.05-1.26,1.38-0.98c-0.45,0.89,0.2,0.72,0.11,1.09
		c1.01-1.26,2.74-2.53,3.26-3.97l-1.2,0.56c0.18-0.58,0.87-1.15,1.22-1.52c0.08,0.35,1.02,0.18,0.84,0.6
		c0.45-1.61,0.95-1.96,1.49-2.21c0.27-0.12,0.55-0.22,0.84-0.42c0.25-0.16,0.75-0.72,0.54-0.68c-0.41-0.43-0.67-0.96-0.63-1.75
		c0.02-0.78,0.56-1.61,1.21-2.03c0.2,0.14,0.37,0.33,0.51,0.52c-0.36-0.14-0.4,0.15-0.45,0.39c-0.05,0.25-0.11,0.47-0.45,0.43
		c0.28,0.2,0.52,0.2,0.78,0.26c0.25,0.06,0.49,0.2,0.58,0.51c0.12-0.35,0.36-0.7,0.61-0.56c0.07,0.26,0.01,0.49-0.06,0.71
		c-0.03,0.11-0.07,0.21-0.08,0.3c-0.01,0.05-0.01,0.09-0.01,0.14c0,0.05,0,0.07,0.08,0.2c-0.17-0.15-0.2-0.08-0.3-0.11
		c-0.08-0.01-0.16-0.01-0.23-0.02c-0.09,0.26-0.08,0.21,0.13,0.35c0.25,0.2,0.56,0.36,0.76,0.6c-0.3,0.44,0.47,1.75-0.14,1.83
		c1.32,0.76,1.27,1.37,2.44,2.35c-0.42-1.56,0.76-0.04,1-0.41l-1.12-1.32c1.08,2.2-0.51-0.61-1.11,0.02
		c-0.31-1.16,2.02,0.52,0.85-0.99c1.63,1.65,1.58,2.27,3.46,3.81c-0.92-1.08,0.61-0.08,0.4-0.85c1.02,1.46,0,0.53-0.14,1.29
		c0.56,0.79,0.36,1.36,1.38,1.75c0.67,1.45-0.66,0.16-0.5,1.01c-0.81-0.16-1.85-4.04-3.15-2.65c-0.47-0.67-1.62-1.11-2.25-2.11
		c0.37,0.99,0.69,2.56,1.76,3.39l0.9-0.53c0.56,0.79,1.26,0.56,1.58,1.2c-0.46-0.14-0.45,0.66,0.06,1.26c0-0.27-0.2-0.51,0-0.54
		c0.87,1.16,1.57,0.93,2.7,2.25c-0.57-1.33-0.47-1.75-0.83-3.1c0.81-0.11,0.61,0.72,1.12,1.32c-0.15-0.04-0.26-0.17-0.25,0.11
		l0.76,0.5c0.73,1.65-1,0.41-0.48,1.82c0.05,1.18,1.06,0.96,1.2,1.79c0.03-0.08,0.06-0.16,0.07-0.23c0.09,0.15,0.14,0.26,0.17,0.35
		c0.01-0.01,0.02-0.03,0.03-0.04c0.61,0.72,1.13,1.59,1.73,1.51c-0.15,0.22,0.52,0.64,0.83,0.8c0.47,0.31,1.71,0.99,1.41,2.13
		c-0.02-0.01-0.02-0.03-0.04-0.05c0.57,1.03,0.85,1.94,0.46,1.9l0.87,1.69l-0.7,0.23c1.12,1.32,1.37,0.95,2.64,1.52
		c0.08,0.31,0.24,0.65,0.44,0.99c0.1,0.17,0.21,0.34,0.32,0.5l0.44,0.6c0.69,0.92,1.39,1.68,1.83,1.96
		c0.09,0.17,0.28,0.37,0.61,0.65c-0.17-0.31-0.34-0.6-0.47-0.93c0.53,0.68,0.88,0.82,1.14,0.93c0.28,0.09,0.49,0.14,0.96,0.4
		c-0.17-0.19-0.2-0.2,0.32,0.15c0.16,0.09,0.35,0.17,0.58,0.26c-0.06,0.05-0.31-0.01-0.52-0.15c0.04,0.1,0.08,0.21,0.13,0.31
		c0.56,0.6,1.16,0.57,1.7,0.43c0.56-0.14,1.07-0.43,1.77-0.48c-0.13,0.07-0.34,0.18-0.49,0.19c0.78,0.09,2.23,0.49,2.32-0.33
		c0.2-0.02,0.39-0.34,0.55-0.66l0.52-0.33c-0.21,0.15-0.37,0.25-0.51,0.32c0.2-0.45,0.32-0.93,0.43-0.83
		c0.52-0.48,1.03-1.01,1.55-1.53c0.19-0.14,0.33-0.29,0.43-0.43c0.11-0.16,0.2-0.33,0.28-0.49l0.41-0.01
		c0.36-0.48,0.5-0.37,0.51-0.26c2.15-0.89,1.74-2.77,3.9-3.87c-0.09-0.65-0.87-0.1-1.11-0.22c-0.05-0.51,0.55-1.71,0.77-2.37
		c1.17-0.3,3.66-2.22,4.07-1.2c1.29-1.34-0.84,0.03-0.48-0.89l0.17-0.13c-0.51,0.41-1.09,0.56-1.62,0.58
		c-0.49-0.24,0.48-1.58,0.92-1.85l0.33,0.76c0.93-1.46-0.15-1.94-0.01-3.24c1.13-0.83,1.12,0.22,1.82,0.45l0.81-1.2l0.43,0.38
		c0.5-0.8,0.25-1.31,1.27-2.13c-0.22,1.05,1.67-1.1,1.36,0.34c0.62-0.41-0.07-1.29,0.74-1.07c-0.13-0.77-0.65,0.28-1.03,0.43
		c-0.85-0.36,0.73-1.46,1.13-2.25c0.39,0.24,0.02,0.78,0.91,0.22c-0.12-0.38,0.11-1.04,0.8-1.19c-0.42-0.37,0.67-0.94,1.08-1.34
		c-0.51,0.41-1.44,0.84-1.53,0.2c0.16-0.53,0.36-0.93,1.18-1.73l-0.72,0.42c0.04-1.3,1.54-0.84,2.24-2.04
		c-0.12,0.66-0.36,0.93-0.38,1.57c0.23-0.66,0.72-1.85,1.19-2.77l1.38-0.31c-0.22-0.38,0.88-0.94,0.46-1.32
		c1.23-0.82-0.25,1.31-0.03,1.69c1.47-1.1,0.24-1.7,2.03-2.42l0.02,0.78c0.41-0.4,0.94-1.46,1.18-1.34
		c-0.14-0.13-0.28,0.14-0.51,0.41c-0.62-1.01,1.15-2.51,0.13-3.12l-0.58,0.54c0.63-1.06,0.61-2.23,1.53-2.66
		c0.76-0.29,0.26,0.9,0.21,1.42c0.81-0.81-0.35-1.54,0.63-2.49c-0.61,0.41-0.84,0.03-0.78-0.49c-0.58,0.54-1.83,1.63-1.27,1.73
		l0.27-0.14c0.18,0.25-0.02,0.65-0.05,0.91c-0.71,0.81-0.73,0.03-1.04,0.04c-1.32,1.22,0.78,0.88-0.33,2.09l-0.31,0.01
		c-0.29,0.79-1.07,1.73-0.67,2.37c-1.04,0.04-1,1.59-1.86,1.89c-1.35-0.99,1.93-2.02,1.86-3.32c-0.82,0.42-0.27-0.89-0.32-1.41
		l-1.26,2.51c-0.31,0.01-1.46,0.06-1.33,0.83l0.17-0.13c-0.57,0.93,0.13,1.17-0.65,1.71c-0.21,0.01-0.22-0.38-0.26-0.51
		c-0.68,0.54-0.19,0.79-0.46,1.32c-0.68,0.55-0.23-0.77-0.84-0.36c-0.18,1.17-1.16,1.08-1.7,1.76c0.95,0.35-1.3,3.42,0.55,2.58
		l-0.89,1.98c-0.8,0.16-0.05-1.94-1.02-2.04l1.12-1.21c-1.06-0.57-1.71,3.1-3.41,3.05c-0.62,0.63-0.35,0.57-1.9,1.44l0.98,0.48
		c-0.75,0.49-1.37,0.32-1.54,0.23c-0.28,0.43-0.61,0.75-0.95,1.07c-0.03-0.2-0.02-0.42,0.14-0.69c-0.87,0.1-0.83,0.39-0.75,0.77
		c-0.03,0.44-0.41,0.82-0.78,1.22l0.03-0.62c-0.15,0.31-0.34,0.69-0.22,0.84c-0.15,0.17-0.27,0.35-0.36,0.54
		c0.23,0.01,0.93,0.15,1.64-0.25c-1.64,1.23-2.5,2.56-4.29,3.28c-0.18-0.25,0.01-1.04-0.16-0.9c-0.68,0.54-0.9,1.59-0.51,1.84
		c-0.11,0.17-0.2,0.28-0.28,0.39c-0.3-0.05-0.65-0.08-0.95,0.19c-0.13,0.01-0.3,0.07-0.52,0.27c0.43,0.77-0.97,1.73-0.92,2.24
		c0.32-0.23,0.63-0.6,0.93-0.98c-0.04,0.89,0.03,1.77-0.66,1.87c0.45-1.31-1.55,0.46-0.45-1.15c-1.69,0.32,0.1,1.03-1.13,1.86
		l-0.93,0.42c-0.36-0.51,0.77-1.33,0.45-1.32l-0.37,0.53c0.09-0.78,1.92-2.42,2.4-3.99l-2.24,2.04c-0.49,0.83-1.09,1.64-1.74,2.44
		c-0.29,0.35-0.58,0.71-0.88,1.06l-0.37,0.46c-0.44,0.7-1.2,1.11-2.16,1.52c0.02,0.01,0.05,0.01,0.07,0.01
		c-0.04,0.06-0.09,0.18-0.19,0.43l-0.03-0.21c-0.16,0.13-0.32,0.22-0.5,0.31c-0.15-0.86-0.44-1.63-0.4-2.36
		c-0.1,0.53-0.08,0.56-0.38,0.93c-0.46,0.4-0.71,0.48-0.96-0.29c0.35-0.25,0.57,0.1,0.57-0.52c-0.02,0.35-0.37,0.36-0.71-0.04
		c-0.11-0.66-0.62-1.53-0.27-1.78c0.25,0.17,0.26,0.44,0.31,0.63c0.25,0.17-0.31-1.16,0.44-0.67l-0.71-0.84
		c-0.06-0.73,0.71,0.04,0.76-0.3c-1.26-1.35-2.6-1.57-3.76-2.77c0.23-0.06,1.04-0.58,0.8-0.44c-0.47-1.21-2.38-1.67-3.25-2.83
		c0.35,0.02,0.56,0.53,0.92,0.81c-2.15-3.87-4.15-6.88-5.7-10.82l-1.42-0.34l-0.06-1.26c-0.95-1.98-2.02-3.58-3.18-5.09
		c-0.76-0.99-1.52-1.97-2.3-2.97c-0.95-1.17-2.03-2.05-3.45-2.58c-0.87-0.32-1.13-0.5-1.25-0.76c-0.13-0.24-0.12-0.52-0.59-0.71
		c-2.25-0.25-3.64,0.55-4.64,1.46c-1.02,0.91-1.7,2.19-2.91,3.83c0.11-0.6,0.26-2.09-1.06-0.6c0.02,0.42,0.31,0.76-0.31,1.23
		l0.01-0.48c-0.77,0.23-0.87,0.99-1.91,1.93c-1.57,1.88-2.54,4.12-3.01,6.36c-1.48,1.59-0.67-0.86-1.09-0.68
		c1.26-0.93,0.55-0.92,0.51-1.4c-0.31,0.8-0.81,1.65-1.62,1.52c-0.69,0.89-1.05,1.26-1.4,2.41c0.18-0.58,0.78-0.7,0.68-0.1
		c-0.78,0.54-2.09,2.51-2.68,1.84c-3.31,4.18-7.31,8.62-10.97,13.01c-0.28,1.03,0.61-0.44,0.51,0.17c-0.45,1.45-0.95,0.65-1.31,1.81
		l-0.07-0.66c-1.13,1.23-1.6,3.15-2.3,4.68c-0.24-0.56-1.2,0.72-0.58-0.51c-0.44,0.66-2.93-0.18-2.94,0.6l2.31,0.79
		c0.14,0.18-0.68,0.93-0.49,0.95c-0.39,0.12-0.83,0.25-1.2,0.41c-0.17,0.05-0.4,0.21-0.46,0.19c-0.08,0-0.13,0.02-0.16,0.05
		c-0.23-0.18-0.26-0.32-0.23-0.41c0.16-0.25,0.51-0.61,0.72-0.85c-0.34-0.35-0.81-0.02-1.21,0.22c-0.05,0.03-0.1,0.07-0.14,0.08
		l-0.05-0.03c-0.04-0.02-0.07-0.04-0.11-0.08c-0.09-0.08-0.12-0.11-0.34-0.33c0.22,0.24,0.19,0.2,0.24,0.26
		c0.1,0.11,0.25,0.2,0.33,0.38c-0.08-0.01-0.16-0.02-0.23-0.05c0.08,0.07,0.17,0.13,0.28,0.17c0.1,0.32,0.34,1.23-0.18,0.85
		c-0.01,0.41-0.09,0.83-0.26,1.22c-0.09-0.89-0.39-0.14-0.64-0.44c0.09-0.17,0.16-0.34,0.23-0.53c-0.26-0.04-0.33-0.27-0.3-0.63
		c0.34-0.64,0.09,0.28,0.33-0.41c-0.02-0.1-0.02-0.21-0.01-0.3c-0.17,0.46-0.46,0.69-0.43,1.08c-0.36,0.44-0.73,0.71-1.16,0.55
		c-0.26-0.12-0.36-0.14-0.97-0.95c-0.12-1.34,1.26,0.54,1.54-0.27c-1.35-2.22-3.45-1.29-4.32-2.53c-0.96-1.69-1.42-1.19-2.66-2.69
		c0.78,0.18-0.42-1.4-0.27-1.98l0.88,0.28c-0.49-0.37-0.69-0.94-0.29-1.02c-0.46,0.51-2.06-1.59-3.15-2.44l-0.31,0.54
		c-0.8-0.7-1.99-1.62-2.56-2.58c-1.17-1.18-1.34-0.57-2.62-1.18c-0.03-0.88,0.5-1.2,1.14-1.4c0.04,0.53,0.64,1.01,0.96,1.7
		c1.69,1.33,3.65,1.85,4.73,3.67c1.66-0.16-1-1-1.24-2.11c0.08-0.03,0.15,0.01,0.21,0.06c-0.05-0.07-0.1-0.14-0.13-0.22
		c0.6,0.48,1.53,1.3,2.22,1.02c-0.89-0.89-1.66,0.15-2.15-1.44c-1.02-0.66-0.74-2.08-1.1-2.69c-0.89-0.28-1.79,0.39-2.79-1.22
		l1.13,0.16c-1.31-1.69-1.52-0.08-2.72-1.65c0.36,0.6-1.02-0.05-0.22,1c-0.73-0.25-1.69-1.33-2.18-2.32
		c-0.27-0.15-0.25,0.12-0.49,0.24c0.31,1.27,1.58,1.15,1.57,2.4l1.18,0.13c0.45,1.06-0.02,1.57-0.7,1.24
		c0.22,0.22,0.48,0.37,0.51,0.64c-0.88,0.94-0.47-1.32-1.55-0.96l0.56,0.56c-0.44,0.78-1.7-0.98-2.28-1.81
		c-0.4-1.14-0.94-2.04-0.52-2.47l1.15,1.04c-0.12-0.92-1.43-1.36-1.97-2.07c0.03-0.1,0.02-0.2-0.01-0.31
		c-0.01,0.07-0.04,0.12-0.09,0.16c-0.09-0.17-0.14-0.34-0.12-0.55c-0.46-0.63-1.46-1.31-1.76-2l-0.36,0.4l0.3-0.11
		c0.43,0.57,0.77,1.54,0.12,1.36c-1.29-1.04-0.69-1.93-0.56-2.52c0.87-0.22,0.97,1.24,1.7,1.71c0.33-0.89-0.95-1.34-1.57-2.98
		c1.11-0.03,1.19,1.53,2.06,1.31c-0.71-1.15-1.43-1.03-2.13-2.28c0.44-0.11,1.32,0.94,1.68,0.54l-0.36-0.87
		c1.42,1.72,0.63-0.99,1.87,0.24c-0.22-0.87-1.28-0.45-1.56-1.71c-0.1,0.49-0.08,1.66-1.04,1l-0.58-1.15
		c0.01-0.68,1.56,0.45,1.33-0.42l-1.06-0.85c-0.18,0.2,0.11,0.78-0.42,0.69c-0.25-0.78-1.58-0.35-2.44-0.81
		c-0.43-0.57-0.74-1.05-0.65-1.45c-0.87-0.46-1.65-1.15-2.42-1.82c-0.41-0.35-0.81-0.7-1.2-1.04c-0.49-0.43-0.96-0.82-1.42-1.07
		c0.63,0.34,0.79,0.19,0.72-0.24c-0.08-0.42-0.39-1.1-0.64-1.61c1.36,1.25,1.93,0.79,2.2,0.22c-0.97-1.06-2.03-0.78-1.74-0.12
		c-0.61-0.86-0.97-0.9-1.26-0.96c-0.3-0.06-0.52-0.14-1.21-0.75c-0.98-0.7,0.75-0.59,0.48-1.03c-1.08-0.45-1.3-0.17-1.5,0.01
		c-0.21,0.21-0.41,0.31-1.58,0.16c0.13-0.11,0.35-0.13,0.16-0.29c-1.34-0.26-2.66,0.59-2.77,1.08c-0.75-0.3-1.63,0.21-2.18,0.72
		c-0.57,0.5-0.93,0.97-1.14,0.41c-0.33,0.42-0.52,0.73-0.61,0.9c-0.29,0.53-0.08,0.44,0.21,0.26c0.4-0.23,0.94-0.61,0.85-0.23
		c-0.1,0.25-0.24,0.5-0.41,0.76c-0.33,0.54-0.84,1.14-1.24,1.54c-0.32,0.29-0.63,0.52-0.8,0.63c0.15-0.2,0.23-0.44,0.34-0.66
		c0.05-0.11,0.11-0.22,0.18-0.31c0.11-0.15,0.24-0.29,0.39-0.42c-0.31,0-0.69,0.09-0.97,0.05c-1.98,1.66,0.31,2.29-1.7,3.81
		c0.48-1.23-0.18-0.67-0.2-1.48c-0.09,0.41-1.44,1.79-0.28,1.22c-0.62,0.68-1.11,1.1-1.61,1.52c-0.28,0.81-0.67,1.63-0.59,2.3
		c-0.86,0.96-1.85,1.39-2.48,1.67c-1.26,2.45-3.51,3.85-4.83,6.44l0.16-0.14c-1.47,1.65,1.37-0.17-0.07,1.62
		c-0.51-0.8-1.33,0.71-2.16,0.99c-2.1,1.93-2.5,4.23-4.58,5.89c-0.13-0.13-0.21-0.4,0.09-0.81c-1.45,1.38-2.29,2.75-3.44,4.12
		l-0.04-0.13c-0.59,0.45-1.08,0.95-1.52,1.48l-0.16,0.2l-0.05,0.07c-0.02,0.03-0.03,0.05-0.04,0.09c-0.02,0.06-0.04,0.14-0.06,0.22
		c-0.04,0.34-0.28,0.87-0.74,0.95c0.07-0.13,0.08-0.51,0.11-0.66c-0.25-0.17-0.36-0.4-0.69-0.28c-0.11,0.04-0.24,0.1-0.42,0.2
		c0.04-0.04-0.01-0.15-0.06-0.25c-0.04-0.09-0.08-0.17-0.12-0.25c-0.08-0.15-0.15-0.26-0.23-0.35c-0.15-0.18-0.29-0.26-0.45-0.36
		c-0.31-0.19-0.67-0.42-1.22-1.51c0.01-0.2,0.27,0.04,0.4,0.12c-0.62-0.98-1.27-1.45-2.03-2.29c-2.23-1.28-3.46-0.85-5.37-3.07
		c0.72-1,1.52,0.99,2.22,0.32c-0.57-0.23-1.11-0.39-1.5-1.15c0.68-0.02,0.28-0.15,0.83-0.25c-0.23-0.65-2.68-0.74-2.59-0.82
		c-0.18,0.15-0.12,0.39,0.33,0.75c-1.01,0.09-2.14-1.89-3.38-2.62c0.32,0.33,1.22,1.48,0.43,1.53c-1.21-1.47-2.47-1.03-3.77-1.57
		c-0.91-1.58,1.64,0.12,1.98-0.73c0-0.43-0.05-1.4,0.71-1.15c-1.03-1.19-2.35-1.42-3.5-2.23l0.19-0.15
		c-1.5-1.25-3.74-1.88-4.62-3.35l0.45,0.79c-0.33-0.11-1.01-0.83-1.74-0.83c0.32-0.26-0.37-1.38,0.23-1.27
		c-1.51,0.36-3.79-2.43-5.33-2.19c-0.16-0.59,0.49-0.69,0.81-0.8c0.83,0.92,0.96,1.39,1.79,1.45c-0.76-0.68-1.09-1.43-0.78-1.54
		c-1.29-0.11-3.3-1.53-4.22-1.29c-0.28-0.8-0.66-1.44-0.01-1.76c-2.59-1.82-0.25,2.56-2.85,0.15c-0.75-1.57,1.75,0.43,0.26-1.25
		l0.37,0.2c-0.02-2.35-1.66,0.14-2.96-1.14c0.46-0.85,1.39,0.37,0.92-0.97c-1.39-0.96-2.86-0.43-3.89-1.79l0.46-0.11
		c-0.84-0.67-2.23-2.22-3.06-2.88c0.09-0.17,0.18-0.05,0.37,0.06c-1.21-1.59-0.93-0.21-1.67-1.77l-0.65,0.02
		c0.38,0.79,1.22,2.18,2.33,2.48c-1.11-0.3,0.38,1.96-0.54,2.2l0.37-0.1c1.03,2.82,3.45,5.28,5.59,7.95
		c2.22,0.75,2.41,2.75,4.55,3.82c1-0.56,0.46,0.13,2.06,1.3c-0.86-0.61-0.65,0.53-0.27,1.08c0.47,0.05,0.89,0.29,1.3,0.54
		c0.04,0.54,1.27,2.87,2.44,2.94c0.64,1.07-0.44,0.07-0.79,0.06c-0.02,0.74,1.01,0.34,1.05,0.89c0,0-0.09,0.07-0.22,0.03
		c1.38,1.21,1.99,2.16,3.3,3.56c0.84-0.68,1.65,0.97,2.54,1.27c-0.44,0.07,0.52,1.02,0.78,1.54l1.29,0.11
		c1.2,0.19,0.71,1.3,1.92,1.92l-0.1-0.36c0.92,0.41,2.33,2.59,2.63,3.65c2.03,1.14,3.62,2.36,4.99,3.64
		c0.69,0.64,1.32,1.3,1.92,1.97l0.88,1.02l0.24,0.28l0.35,0.38l0.71,0.78c0.92,1,1.95,1.84,3.25,2.32c1.28,0.47,2.75,0.61,4.2,0.26
		c1.45-0.34,2.83-1.11,3.96-2.4c0.29-0.32,0.57-0.67,0.85-1.02c0.25-0.31,0.49-0.63,0.75-0.95c0.33-0.43,0.65-0.87,0.97-1.34
		c0.12-0.68-0.7,0.01-0.78-0.66c0.49-0.82,0.66-0.96,1.18-1.64c-0.7,0.42-0.34,0.54-0.51,0.28l-0.58,1.22
		c-0.1,0-0.04-0.13-0.23-0.13c-0.2,0.41-0.35,0.95-0.75,1.36c0.29-0.81-0.19-1.48,0.73-2.17c0.03,0.13-0.03,0.27-0.16,0.54
		c0.62-0.68,0.35-0.95,0.94-1.37c0.66-0.56,0.34-0.54,0.68-0.42l1.96-1.8c0.07-1.61,1.78-2.33,2.11-2.6
		c0.38,0.66-0.91,1.5-0.76,2.44l0.99-0.42l-0.41-0.4l0.96-0.96l0.04,0.13c-0.08-0.26-0.15-0.53,0.22-0.68c0.1,0,0.3,0,0.23,0.13
		l0.35-0.95c0.11,0.8,0.66-0.55,1.11-0.03c2.21-2.25,1.75-3.7,4.19-5.3c-0.53,0.15-0.3-1.35,0.33-1.94
		c0.43-0.28,0.63-0.28,0.64,0.12l0.42-1.09c1.69-0.44,2-1.93,3.55-3.31l0.17,0.27c0.19-0.81,0.48-1.63,1.27-2.45l0.34,0.53
		c1.19-0.83-0.33-1.61,0.92-2.58c-0.51-0.39-1.37,0.17-1.94-0.09c0.74,0.12,1.83-1.12,1.23-1.1c0.74-1.37,0.67-0.82,0.87-0.83
		l0.25-0.95c0.69-0.83,0.87,0.25,0.92,0.79c0.04-0.61,0.32-1.05,0.7-1.45c0.16-0.17,0.46-0.47,0.51-0.44
		c0.1-0.04,0.19-0.07,0.26-0.12c0.03,0.11,0.07,0.22,0.12,0.31l0.13-0.09l0.18-0.11c-0.17-0.66,0.32-1.08,0.71-0.74
		c-0.07,0.34-0.1,0.69-0.09,1.04c0.17,0.5,0.03-0.36,0.06-0.54c0.33-0.51,0.41,0.26,0.29,0.82c0.29-0.42,0.28,0.16,0.09,0.4
		l-0.06,0.09l-0.03,0.04l0.09,0.18c0.12,0.24,0.25,0.47,0.4,0.68C721.55,1161.65,721.94,1161.99,722.49,1162.17z M828.41,1185.91
		l-0.23,0.07C828.38,1185.54,828.45,1185.25,828.41,1185.91z M816.11,1186.83c1.32,1.33,0.72,1.11,0.66,1.44
		c-0.52-0.86-0.93-1.5-1.35-2.11c-0.23-0.34-0.33-0.49-0.49-0.75c-0.14-0.24-0.28-0.51-0.4-0.81c-0.02,0.27-0.19,0.43-0.27,0.56
		c-0.25-0.45-0.39-0.98-0.13-1.37c0.53,0.03,0.97,0.93,1.28,1.72c0.14,0.37,0.39,0.93,0.51,1.2
		C816.07,1187,816.13,1187.09,816.11,1186.83z M835.29,1171.42c0.01,0.08,0.02,0.17,0.03,0.26c0,0,0,0-0.01,0.01L835.29,1171.42z
		 M831,1177.43c-0.21-0.04-0.4,0.03-0.6,0.15C830.66,1177.63,830.88,1177.65,831,1177.43z M821.86,1185.38
		c-0.19-0.4-0.55-0.29-0.85-0.29C821.12,1185.16,821.34,1185.4,821.86,1185.38z M761.46,1188.35c0.18-0.43,0.45-1.29-0.24-0.88
		c0,0.47-0.86,0.67-0.71,1.21c-0.04,0.02-0.05,0.02-0.08,0.03C760.94,1188.56,761.36,1188.44,761.46,1188.35z M733.98,1169.1
		c0.32-0.15,0.82-0.13,0.9-0.46c0.02,0.03,0.04,0.08,0.06,0.11c0.02-0.16,0.04-0.29,0.16-0.27c-0.16-0.32-0.33-0.66-0.56-0.79
		C733.56,1168.3,732.96,1167.83,733.98,1169.1z"/>
	<path d="M746.61,1177.57c-0.12-0.12-0.19-0.23-0.27-0.3C746.41,1177.36,746.5,1177.45,746.61,1177.57z"/>
	<path d="M734.57,1167.75c-0.08,0.02,0.09,0.42,0.31,0.89C734.92,1168.48,734.86,1168.21,734.57,1167.75z"/>
	<path d="M853.96,1156.03l-0.2,0.4l0.82-0.42c0.66-1.33,0.34-1.7,0.15-2.34c-0.45,1.31-1.17,1.73-2.15,3.07L853.96,1156.03z"/>
	<path d="M850.64,1154.08c-0.21,0.01-0.73,0.03-0.9,0.16l0.12,0.39L850.64,1154.08z"/>
	<path d="M838.18,1165.72l1.13-0.82C839.36,1164.38,837.92,1165.21,838.18,1165.72z"/>
	<path d="M846.65,1165.14l0.19-0.79c-0.65,0.28-1.19,0.95-0.98,1.33C846.26,1164.89,846.17,1165.68,846.65,1165.14z"/>
	<path d="M835.7,1168.42c0.23,0.77-1.13,0.82-0.83,1.46C834.97,1169.48,836.17,1168.92,835.7,1168.42z"/>
	<path d="M841.19,1171.98c0.77,0.1,0.81-0.81,1.5-1.36C842.21,1171.16,841.04,1171.46,841.19,1171.98z"/>
	<path d="M832.33,1175.17c-0.32-0.37,0.09-0.78,0.6-1.19c-0.03,0.26,0.05,0.52-0.09,0.78c0.43-1.06,0.53-1.06,0.93-1.86
		c-0.82,0.42-1.84,1.24-2.21,0.74C831.48,1174.42,831.47,1175.47,832.33,1175.17z"/>
	<path d="M839.88,1173.58c0.62-0.41,1.24-0.44,1.78-1.11c-0.35-0.11-0.91-0.22-1.52,0.58l-0.19-0.64
		C839.02,1172.84,840.76,1172.64,839.88,1173.58z"/>
	<path d="M828.73,1177.26l0.48-0.15c0.32-1.05,1.35-1.87,1.18-2.77C829.62,1175.27,828.86,1176.61,828.73,1177.26z"/>
	<path d="M836.76,1175.53l0.5,0.63c0.75-0.68-0.25-0.12-0.15-0.51c0.27-0.14,0.61-0.41,0.64-0.67
		C837.09,1175.9,837.22,1174.6,836.76,1175.53z"/>
	<path d="M835.24,1178.57l-0.59,1.19l1.31-0.18C836.73,1178.25,835.64,1179.2,835.24,1178.57z"/>
	<path d="M833.8,1179.41l-0.21,0.01l-0.39,2.22C833.58,1180.45,833.69,1180.45,833.8,1179.41z"/>
	<path d="M818.79,1181.55c-0.4,0.01-0.13,1.18-0.08,0.57C819.07,1182.15,818.59,1180.65,818.79,1181.55z"/>
	<path d="M817.09,1189.92c-0.22-0.38-0.82-0.89-1.43-1.57c-0.32-0.34-0.64-0.69-0.94-1.01c-0.29-0.3-0.64-0.69-0.76-0.76
		c0.04,0.05,0.08,0.09,0.13,0.15c0.07,0.09,0.14,0.18,0.21,0.28c0.14,0.2,0.3,0.41,0.46,0.63c0.31,0.45,0.66,0.93,0.99,1.33
		C816.41,1189.75,817.05,1190.18,817.09,1189.92z"/>
	<path d="M813.7,1186.36c0.05,0.04,0.15,0.12,0.26,0.21C813.85,1186.47,813.77,1186.4,813.7,1186.36z"/>
	<path d="M794.83,1161.37c-0.01,0-0.03,0.02-0.07,0.06L794.83,1161.37z"/>
	<path d="M795.01,1161.29c-0.02,0.07,0.02,0.09,0.11,0.08c0.03,0.01,0.03-0.03,0.1,0.01c0.07,0.05,0.14,0.1,0.2,0.13
		c0.13,0.07,0.26,0.11,0.36,0.1c-0.14-0.13-0.33-0.35-0.41-0.39c-0.05-0.01-0.11-0.01-0.16-0.01c-0.11,0.01-0.23,0.04-0.38,0.17
		C794.88,1161.37,794.71,1161.59,795.01,1161.29z"/>
	<path d="M794.17,1160.84c-0.03-0.28,0.1-0.2,0-0.57C794.07,1160.12,794.03,1160.63,794.17,1160.84z"/>
	<path d="M757.38,1188.92c-0.13-0.15-0.15,0.01-0.04,0.59C757.51,1189.43,757.35,1189.13,757.38,1188.92z"/>
	<path d="M757.15,1189.66l-0.03-0.29c-0.03-0.15-0.06-0.3-0.07-0.45C757.06,1189.17,757.09,1189.42,757.15,1189.66z"/>
	<path d="M756.66,1188.52c0.02-0.02,0.05-0.05,0.09-0.08c0.02-0.02,0.05-0.04,0.07-0.06l-0.04,0.03
		C756.74,1188.43,756.69,1188.46,756.66,1188.52z"/>
	<path d="M756.85,1188.36l-0.03,0.02L756.85,1188.36z"/>
	<path d="M756.77,1188.51l0.16-0.23c-0.03,0.03-0.05,0.05-0.08,0.07C756.86,1188.35,756.85,1188.39,756.77,1188.51z"/>
	<path d="M756.38,1188.03c-0.01,0.19,0.02,0.43-0.02,0.59c-0.08,0.1-0.16,0.21-0.23,0.32c0.2-0.04,0.22-0.17,0.31-0.31
		c0.08-0.15,0.24-0.27,0.56-0.52c-0.07,0.03-0.09,0.12-0.2,0.1L756.38,1188.03z"/>
	<path d="M754.14,1185.53c-0.38-0.87-2.13-1.18-1.75-2.14c-1.98-1.75-0.8,1.39-2.9-0.73c1.38,2.49,2.23,0.06,3.39,2.32
		C752.56,1183.69,753.72,1185.35,754.14,1185.53z"/>
	<path d="M753.24,1186.81c0.44-0.16-0.25-1.1-0.71-1.2C752.7,1185.9,752.58,1186.75,753.24,1186.81z"/>
	<polygon points="750.68,1181.79 750.45,1180.95 750.1,1180.97 	"/>
	<path d="M748.95,1179.31l0.89,0.29C749.52,1179.52,748.83,1178.59,748.95,1179.31z"/>
	<path d="M746.85,1175.62c-0.31-0.68-1.66-0.46-0.5,0.59l-0.18-0.3C746.37,1175.86,746.19,1174.95,746.85,1175.62z"/>
	<path d="M739.35,1169.16c0.29,0.41,0.78,0.78,0.91,0.54l-1.04-0.93L739.35,1169.16z"/>
	<path d="M737.2,1171.12c-0.28,0.81,0.85,0.97,1.22,1.84C737.89,1172.06,738.04,1172.1,737.2,1171.12z"/>
	<path d="M739.19,1167.29c0.47,0.11,0.67,0.68,0.84,0.98C740.26,1167.87,739.59,1167.2,739.19,1167.29z"/>
	<path d="M737.64,1165.72c-0.05-0.53,0.38-0.18,0.33-0.57c-0.34-0.96-1-1.73-1.66-1.91c-0.09,0.39-0.53,1.19-1.07,1.1
		c1.16,1.05,2.7,0.83,2.35,2.06l1.79,0.22C738.79,1165.54,738.11,1166.44,737.64,1165.72z"/>
	<path d="M737.67,1169.66l-0.18-0.91c-0.22,0.38-0.67-0.06-1.04-0.32C735.86,1169.17,737.34,1169.32,737.67,1169.66z"/>
	<polygon points="731.91,1159.38 730.66,1158.14 730.97,1158.62 	"/>
	<polygon points="731.45,1158.32 731.63,1158.11 730.42,1157.37 	"/>
	<polygon points="730.56,1156.68 730.66,1156.87 731.48,1157.53 	"/>
	<path d="M728.21,1153.42l0.06,0.7c0.06,0.06,0.15,0.17,0.19,0.22c0.04,0.05,0.08,0.11,0.12,0.17c0.07,0.13,0.15,0.26,0.22,0.37
		c0.14,0.23,0.28,0.37,0.46,0.17c-0.19-0.1-0.41-0.33-0.58-0.6c-0.04-0.07-0.08-0.13-0.11-0.2c-0.06-0.11-0.11-0.21-0.16-0.3
		C728.3,1153.75,728.23,1153.56,728.21,1153.42z"/>
	<path d="M719.8,1160.73c-0.01-0.41-0.3-0.4-0.6-0.4l0.21,0.81C719.47,1161,719.6,1160.73,719.8,1160.73z"/>
	<path d="M717.64,1161.72l-0.21,1.49c1.02-1.1,0.68-1.63,1.39-2.73c-0.53,0.28-0.58,1.23-1.18,1.65L717.64,1161.72z"/>
	<path d="M701.11,1181.76c-0.31-0.39-0.44-0.12-0.09-1.07c-0.58,1.23-1.37,2.05-2.24,3.28c0.4-0.01,0.12,1.21,0.38,0.67l0.81-1.51
		l0.11,0.41C701.1,1182.84,700.12,1182.59,701.11,1181.76z"/>
	<path d="M649.62,1152.6c0.28-0.07,0.27-0.36,0.27-0.66C648.96,1151.46,649.8,1152.7,649.62,1152.6z"/>
</g>
<path d="M996.14,1171.62c0,0,46.91-34.63,119.23-62.26l23.2,13.65c0,0,26.04-57.65,82.45-49.47c56.4,8.19,68.34,81.54,46.51,112.24
	s-56.97,19.1-66.52,35.48c-9.55,16.38,32.41,47.42-10.92,95.18s-154.54-6.14-106.1-88.7L996.14,1171.62z"/>
<path d="M495.86,1171.62c0,0-41.3-25.59-87.35-76.25l-55.08,27.63c0,0-26.04-57.65-82.45-49.47c-56.4,8.19-68.34,81.54-46.51,112.24
	s56.97,19.1,66.52,35.48c9.55,16.38-32.41,47.42,10.92,95.18s154.54-6.14,106.1-88.7L495.86,1171.62z"/>
</svg>
