<svg id="visual" viewBox="0 0 960 540" width="960" height="540" xmlns="http://www.w3.org/2000/svg" xmlns:xlink="http://www.w3.org/1999/xlink" version="1.1"><rect width="960" height="540" fill="#F3F3F3"></rect><g><g transform="translate(143 298)"><path d="M46 -26.5C54.9 -11.2 54 9.7 44.7 26C35.4 42.3 17.7 53.9 -0.3 54.1C-18.4 54.3 -36.8 43.1 -45.5 27.1C-54.2 11.2 -53.2 -9.5 -44 -24.9C-34.8 -40.3 -17.4 -50.6 0.6 -50.9C18.6 -51.3 37.2 -41.7 46 -26.5Z" stroke="#E3E3E3" fill="none" stroke-width="17"></path></g><g transform="translate(326 460)"><path d="M16.3 -9.3C19.5 -3.8 19.5 3.7 16.2 9.3C12.9 14.9 6.5 18.5 0 18.5C-6.4 18.5 -12.8 14.8 -16 9.2C-19.3 3.6 -19.5 -3.9 -16.3 -9.4C-13.1 -14.8 -6.6 -18.3 0 -18.3C6.5 -18.3 13.1 -14.8 16.3 -9.3Z" stroke="#E3E3E3" fill="none" stroke-width="17"></path></g><g transform="translate(421 72)"><path d="M33.5 -19.4C39.9 -8.3 39.2 7 32.4 18.2C25.6 29.4 12.8 36.5 -0.4 36.7C-13.5 36.9 -27 30.2 -33.3 19.3C-39.6 8.4 -38.6 -6.7 -31.9 -18.1C-25.1 -29.5 -12.6 -37.2 0.5 -37.5C13.6 -37.8 27.1 -30.6 33.5 -19.4Z" stroke="#E3E3E3" fill="none" stroke-width="17"></path></g><g transform="translate(829 175)"><path d="M34 -19.8C40.6 -8.1 40.2 7.4 33.4 18.5C26.6 29.6 13.3 36.3 -0.2 36.4C-13.6 36.4 -27.2 30 -33.6 19.1C-40.1 8.2 -39.4 -7.1 -32.6 -18.9C-25.8 -30.7 -12.9 -39 0.4 -39.2C13.7 -39.4 27.3 -31.5 34 -19.8Z" stroke="#E3E3E3" fill="none" stroke-width="17"></path></g><g transform="translate(520 443)"><path d="M27.9 -16.4C33.2 -6.9 32.6 5.8 26.9 15.2C21.3 24.6 10.6 30.8 -0.1 30.8C-10.8 30.8 -21.5 24.7 -27.4 15.2C-33.3 5.6 -34.3 -7.4 -28.9 -16.9C-23.5 -26.4 -11.8 -32.5 -0.2 -32.4C11.3 -32.3 22.6 -25.9 27.9 -16.4Z" stroke="#E3E3E3" fill="none" stroke-width="17"></path></g><g transform="translate(750 459)"><path d="M9.6 -5.5C11.5 -2.3 11.4 2.1 9.4 5.5C7.5 8.9 3.7 11.3 0.1 11.3C-3.5 11.2 -7.1 8.7 -9 5.2C-11 1.8 -11.4 -2.5 -9.6 -5.7C-7.9 -8.9 -3.9 -11 0 -10.9C3.9 -10.9 7.7 -8.8 9.6 -5.5Z" stroke="#E3E3E3" fill="none" stroke-width="17"></path></g><g transform="translate(558 192)"><path d="M39.9 -23.8C47.5 -9.9 46.5 8.2 38.4 21.8C30.4 35.4 15.2 44.5 -0.5 44.7C-16.1 45 -32.2 36.5 -39.8 23.1C-47.4 9.8 -46.5 -8.2 -38.4 -22.4C-30.4 -36.6 -15.2 -46.8 0.5 -47.1C16.2 -47.4 32.3 -37.7 39.9 -23.8Z" stroke="#E3E3E3" fill="none" stroke-width="17"></path></g><g transform="translate(226 104)"><path d="M40.2 -22.2C48.4 -9 48.8 9.7 40.8 23.5C32.8 37.2 16.4 46 -0.1 46.1C-16.5 46.1 -33.1 37.4 -40.9 23.7C-48.8 10.1 -47.9 -8.5 -39.6 -21.8C-31.3 -35 -15.7 -43 0.2 -43.1C16 -43.1 32 -35.4 40.2 -22.2Z" stroke="#E3E3E3" fill="none" stroke-width="17"></path></g><g transform="translate(425 344)"><path d="M34.2 -19.2C41 -7.8 41.1 8 34.3 19.3C27.5 30.7 13.7 37.6 0.1 37.5C-13.4 37.4 -26.9 30.4 -33.9 18.9C-40.9 7.4 -41.5 -8.4 -34.8 -19.7C-28 -31 -14 -37.7 -0.2 -37.6C13.7 -37.4 27.3 -30.5 34.2 -19.2Z" stroke="#E3E3E3" fill="none" stroke-width="17"></path></g><g transform="translate(871 365)"><path d="M5.7 -3.2C6.8 -1.4 6.7 1.2 5.6 3.1C4.4 5 2.2 6.3 0.1 6.2C-2 6.2 -4.1 4.8 -5.2 2.9C-6.4 1 -6.6 -1.5 -5.6 -3.3C-4.6 -5.1 -2.3 -6.2 0 -6.2C2.3 -6.2 4.6 -5.1 5.7 -3.2Z" stroke="#E3E3E3" fill="none" stroke-width="17"></path></g><g transform="translate(282 250)"><path d="M14.1 -8.1C16.9 -3.2 17 3.3 14.2 7.9C11.4 12.5 5.7 15.2 0.2 15.1C-5.3 15 -10.6 12.1 -13.3 7.6C-16 3 -16.1 -3.2 -13.4 -7.9C-10.8 -12.7 -5.4 -16 0.1 -16.1C5.6 -16.1 11.2 -12.9 14.1 -8.1Z" stroke="#E3E3E3" fill="none" stroke-width="17"></path></g><g transform="translate(726 272)"><path d="M32 -18.5C38.7 -6.9 39.5 8.2 33.1 19.5C26.8 30.8 13.4 38.4 0.2 38.3C-12.9 38.1 -25.9 30.3 -32 19.1C-38.1 7.9 -37.4 -6.7 -30.9 -18.2C-24.5 -29.7 -12.2 -38.2 0.2 -38.3C12.7 -38.5 25.3 -30.2 32 -18.5Z" stroke="#E3E3E3" fill="none" stroke-width="17"></path></g><g transform="translate(84 175)"><path d="M11.9 -6.6C14.4 -2.5 14.8 3.1 12.4 7.2C10.1 11.2 5 13.6 0.2 13.5C-4.7 13.4 -9.4 10.8 -11.9 6.6C-14.4 2.5 -14.7 -3.1 -12.3 -7.1C-10 -11.1 -5 -13.6 -0.2 -13.5C4.7 -13.4 9.4 -10.8 11.9 -6.6Z" stroke="#E3E3E3" fill="none" stroke-width="17"></path></g><g transform="translate(150 447)"><path d="M38.5 -21.7C46.6 -8.3 47.5 9.8 39.9 22.9C32.3 36 16.1 44.1 0.1 44.1C-16 44 -32 35.9 -39.9 22.5C-47.9 9.2 -47.9 -9.2 -40 -22.6C-32 -35.9 -16 -44.1 -0.4 -43.9C15.2 -43.7 30.5 -35 38.5 -21.7Z" stroke="#E3E3E3" fill="none" stroke-width="17"></path></g><g transform="translate(695 109)"><path d="M23.1 -13.4C27.8 -5.1 28.2 5.7 23.6 13.5C19 21.3 9.5 26.2 0.1 26.1C-9.3 26 -18.6 21.1 -23.3 13.1C-28.1 5.2 -28.4 -5.6 -23.7 -13.9C-19.1 -22.1 -9.5 -27.7 -0.2 -27.6C9.2 -27.5 18.3 -21.7 23.1 -13.4Z" stroke="#E3E3E3" fill="none" stroke-width="17"></path></g><g transform="translate(416 208)"><path d="M20.8 -12.1C24.8 -5.1 24.3 4.3 20.1 11.5C15.9 18.8 7.9 23.8 0 23.8C-8 23.8 -16 18.8 -20 11.7C-24.1 4.6 -24.1 -4.6 -20.1 -11.7C-16.1 -18.7 -8 -23.5 0.2 -23.6C8.4 -23.7 16.8 -19.1 20.8 -12.1Z" stroke="#E3E3E3" fill="none" stroke-width="17"></path></g></g></svg>